<?xml version="1.0" encoding="utf-8"?>
<!-- Generator: Adobe Illustrator 26.5.0, SVG Export Plug-In . SVG Version: 6.00 Build 0)  -->
<svg version="1.1" xmlns="http://www.w3.org/2000/svg" xmlns:xlink="http://www.w3.org/1999/xlink" x="0px" y="0px"
	 viewBox="0 0 2048 1152" style="enable-background:new 0 0 2048 1152;" xml:space="preserve">
<g id="LINEA_ABAJO">
	<path d="M1056.12,961.14c4.76,0,10.47-0.96,16.19-0.96c5.71,0.96,10.47,1.92,15.23,1.92c6.67-0.96,14.28-1.92,20-0.96
		c5.71,0,12.38,0,20,0c6.67,0.96,10.47-0.96,18.09,0.96c6.67,0,12.38,0,19.99-0.96c7.62,0,13.33,0.96,20.95,0.96
		c6.66-1.92,14.28-0.96,20-0.96c7.62-0.96,15.23,0.96,21.9,0c6.66-0.96,13.33,0,21.9,0.96c7.62-0.96,13.33,0,21.9-0.96
		c5.71,0,12.38-0.96,20.95,0.96c6.67-1.92,14.28-0.96,20.95-0.96c7.62,0,14.28-0.96,20.95-1.92c8.57,1.92,14.28,0,21.9,0.96
		c7.62,0,14.28-1.92,21.9-0.96c6.67,0.96,14.28-0.96,20-0.96c8.57-0.96,15.23,0,20,0.96c7.62-0.96,14.28-0.96,19.99-1.92
		c7.62,0.96,15.23-1.92,20-0.96c7.62,0,13.33-1.92,20-1.92c6.66,0,11.43-0.96,17.14,0c5.71-0.96,11.43-1.92,18.09-2.87
		c4.76,0,12.38,0,18.09-1.92c4.76,0,9.52-0.96,14.28-0.96c5.71,0,11.43-1.92,14.28-2.87c5.71-0.96,9.52-0.96,14.28-1.92
		c8.57-0.96,14.28-4.79,21.9-5.75c5.71,0,10.47-0.96,14.28,3.83c5.71,2.87,10.47,7.66,16.19,16.28c1.9,5.75,4.76,10.54,7.62,18.2
		c0.95,4.79,0.95,11.49,2.86,15.33c-0.95,4.79-2.86,9.58-6.67,12.45c-2.86,3.83-8.57,5.75-17.14,7.66
		c-9.52-0.96-16.19-0.96-30.47,0.96c-5.71-3.83-10.47-3.83-17.14-2.87c-4.76-0.96-11.43-2.87-16.19-2.87
		c-6.67,0-12.38-0.96-18.09-2.87c-5.71,0.96-10.47-0.96-17.14-0.96c-5.71-0.96-11.43-0.96-18.09-0.96c-7.62,0-12.38,0-18.09-0.96
		c-6.67,0.96-13.33-1.92-19.04-0.96c-7.62-1.92-13.33-1.92-20.95-0.96c-5.71-0.96-13.33-1.92-19.04-2.87c-5.71,0.96-12.38,0.96-20,0
		c-6.66,0-14.28-1.92-19.99,0c-6.67-1.92-14.28-1.92-20.95-2.87c-5.71,0.96-12.38,1.92-19.04,0.96c-7.62,0.96-13.33,0-19.99-0.96
		c-6.67,0-14.28,0.96-20,0.96c-5.71,0-13.33-0.96-20.95-0.96c-6.67,0-11.43-0.96-20-0.96c-6.67,0-12.38,0.96-19.04,0
		c-5.71,0-12.38,0-19.04-0.96c-6.67,1.92-12.38,1.92-19.04,0c-7.62,0-13.33,1.92-19.04,0.96c-5.71,0-12.38,0-19.04,0
		c-4.76-0.96-10.47,0.96-16.19,0.96c-5.71,0-13.33,0-17.14-0.96c-6.67,0-11.43,0.96-18.09,0v0.96h-6.67
		c-2.86,0-6.67,0.96-12.38,0.96c-6.67,0.96-10.47,0-19.04,0c-5.71,0-15.23,0.96-21.9-0.96c-7.62,0.96-15.23,0-26.66,0
		c-5.71,0.96-15.23,0.96-24.76,0c-10.47,0-18.09,1.92-28.56,1.92c-8.57,0-17.14,1.92-22.85,0c-7.62,1.92-18.09,0.96-25.71,0
		c-7.62,0.96-13.33,0.96-20.95,0.96c-5.71,0.96-12.38,0-16.19-0.96c-4.76,0.96-7.62,0.96-10.47,0.96h-3.81
		c0-1.92-4.76-1.92-11.43,1.92l-22.85-2.87l-1.9-0.96l-12.38,4.79h-2.86l-8.57,3.83h-21.9c-2.86,0-4.76-1.92-8.57-4.79l-7.62,2.87
		l-3.81,3.83h-2.86l-1.9-1.92v-4.79l-1.9,0.96l-2.86,5.75l-22.85,0.96c-2.86-0.96-5.71-2.87-10.47-4.79l-3.81,1.92v2.87h-1.9h-6.66
		c-7.62,0.96-13.33,0.96-20.95,1.92c-6.67,0.96-12.38-0.96-20,0c-6.67,1.92-13.33,1.92-21.9,1.92c-4.76,2.87-12.38,0.96-20,1.92
		h-0.95l-7.62,5.75l17.14,0.96c-2.86,0-8.57,0.96-14.28,0.96c-6.66,0-12.38,0.96-16.19,0c-5.71-0.96-12.38,0.96-20.95-0.96
		c-10.47,2.87-18.09,2.87-26.66,2.87c-5.71-0.96-13.33-1.92-17.14-2.87l-0.95,0.96c0,1.92-2.86,1.92-9.52,0l-12.38,5.75l-22.85,3.83
		l17.14,0.96h19.04h18.09l18.09,1.92l18.09-0.96l20,0.96l17.14,1.92l18.09,0.96l19.04-0.96c-3.81,0.96-6.67,0.96-11.43,0.96
		c-5.71-0.96-9.52,0-16.19,0.96c-5.71-0.96-10.47,0-19.04-0.96c-4.76,0-13.33,1.92-20.95,0c-8.57,0.96-16.19,1.92-22.85,1.92
		c-5.71,0-19.04,0-23.8,3.83c-9.52-0.96-19.04,0.96-24.76-0.96c-7.62,1.92-13.33,0-21.9,1.92c-7.62,0.96-14.28,1.92-21.9,0.96
		c-5.71,1.92-12.38,2.87-15.23,4.79c-5.71,0-10.47,0-14.28,0.96l-7.62,1.92c-9.52-0.96-16.19-1.92-21.9-4.79
		c-5.71-1.92-9.52-6.71-15.23-11.49c-2.86-7.66-5.71-14.37-5.71-21.07c-0.95-3.83-3.81-10.54-3.81-16.28
		c-0.95-6.71-1.9-13.41-1.9-22.03c0.95-4.79,0.95-12.45,1.9-18.2c1.9-4.79,2.86-10.54,8.57-14.37c2.86-2.87,8.57-2.87,16.19-2.87
		c6.67-0.96,12.38,0.96,16.19,0c5.71,1.92,12.38,0.96,19.04,3.83c7.62,0,12.38,0,19.04,0c6.67,1.92,13.33,0.96,20,2.87
		c6.67,0.96,16.19,0,22.85,0.96c7.62,1.92,14.28,0.96,22.85,1.92c6.67,0,17.14,1.92,23.8,0.96c5.71,0.96,15.23,0.96,24.76,3.83
		c4.76,0.96,14.28-2.87,21.9-0.96c7.62,3.83,15.23,3.83,22.85,2.87c10.47,0.96,17.14-0.96,24.76,0.96c7.62,0,16.19-0.96,24.76,0
		c6.67,2.87,14.28,2.87,22.85,5.75c9.52-1.92,16.19,0.96,23.8-0.96c7.62,0,15.23,0,22.85,0.96c6.67-0.96,14.28,2.87,20,1.92
		c6.66,0,16.19,0.96,21.9,0.96c7.62,0,12.38,1.92,19.04,0c5.71,1.92,14.28,1.92,20,0.96c4.76,0,8.57,0,14.28,0.96
		c5.71,0.96,10.47,0,16.19,0.96c4.76,0,9.52,0,13.33,0c3.81,0,8.57,0,12.38,0h8.57h7.62l4.76-0.96c1.9,0,4.76,0,10.47,0
		c5.71,0,12.38,0,20-0.96c6.67-0.96,15.23,0.96,24.76,2.87c7.62-0.96,18.09-0.96,26.66,0.96c7.62-0.96,16.19-2.87,23.8-2.87
		c5.71,0.96,11.43,0,15.23-1.92l4.76-3.83C1042.79,961.14,1049.46,961.14,1056.12,961.14z"/>
</g>
<g id="o">
	<path d="M1907.15,449.77c17.85,4.29,30.71,13.58,39.99,25.73c5.71,7.15,17.14,22.15,19.28,32.16c3.57,14.29,2.86,30.73,3.57,52.17
		c0,30.73-5,62.89-10,91.47l-1.43,0.71c-2.14,6.43-3.57,10-4.28,10c0,2.86-1.43,9.29-5.71,19.3c-2.14,7.86-4.28,17.15-7.86,25.73
		c-1.43,6.43-2.86,12.15-2.86,15.72c-2.14,4.29-3.57,9.29-4.28,17.15c0,0.71,0,2.14,0.71,2.86c1.43-2.14,2.14-5,2.14-7.86
		c2.14,0,2.86-0.71,3.57-2.86l0.71-5.72l-0.71-2.14c2.14-10,3.57-15.72,5-16.44c0-0.71,0.71-1.43,2.86-2.86
		c-23.57,95.76-74.98,231.54-181.38,260.84c-29.99,7.86-40.7-9.29-79.27-13.58c-36.42-3.57-59.99-66.46-64.27-145.07
		c-4.28-92.9,19.28-207.24,82.84-264.42c-0.71,1.43-1.43,2.86-2.86,4.29v3.57h0.71l3.57-6.43h2.86c0,0.71,0,1.43,0.71,1.43
		c2.86-0.71,4.28-2.14,5-3.57v-0.71c0-0.71,0-0.71-1.43-0.71l-2.14,2.14h-1.43c0-1.43,0-2.86,0.71-5
		c23.57-19.3,52.84-31.44,88.55-32.87C1827.89,464.78,1882.16,443.34,1907.15,449.77z M1767.19,764.21
		c-24.28-37.16-30.71-107.2-21.42-159.36h2.14v-0.71l-2.14-1.43c0.71-2.86,1.43-5.72,2.14-7.86h-0.71c0.71-0.71,1.43-2.14,2.86-2.86
		c0-2.86,1.43-6.43,4.28-10c0.71-0.71,1.43,0,1.43,0l-2.14,3.57l-2.14,8.58c1.43,0,4.28-7.15,5-6.43h0.71
		c0-1.43,0.71-2.86,3.57-5.72c-0.71-2.14,0-2.86,1.43-3.57v-3.57l-7.14,1.43c-1.43,0-3.57,2.86-5.71,7.15
		c0.71,1.43-2.14,3.57-6.43,5.72v1.43c1.43,0,2.14,0,2.14,0.71v0.71c-3.57,5-5.71,8.58-5.71,9.29c-1.43,0.71-2.14,2.14-2.14,4.29
		c-1.43,0.71-1.43,4.29-2.14,10.72c-4.28,0.71-6.43,2.14-6.43,3.57v1.43c2.14,0,3.57,0,3.57,1.43c-0.71,0.71-2.14,2.86-2.86,5
		c-1.43,0.71-2.14,2.86-2.14,5.72c-2.86,3.57-4.28,5.72-5,5.72l1.43,2.86v0.71c0,0.71-1.43,2.14-4.28,2.86l-0.71,0.71l0.71,1.43
		l0.71,2.14c-2.14,0-3.57,2.14-5.71,5.72l1.43,1.43v1.43c-0.71,1.43-1.43,2.86-2.86,4.29l0.71,2.86l0.71,1.43l-0.71,1.43
		c0,0.71,0.71,0.71,1.43,0.71c-0.71,1.43-2.14,3.57-5,6.43v1.43l1.43,1.43v1.43c-0.71,4.29-1.43,6.43-3.57,7.15
		c0,4.29-0.71,6.43-1.43,7.15l-5,46.45c2.14-12.86,5.71-32.16,9.28-46.45c-15,83.61-14.28,217.96,27.14,224.4
		c27.14,3.57,52.13-14.29,69.27-33.59c15.71-17.87,29.99-38.59,27.85-42.88c10.71-5.72,47.13-150.07,50.7-163.65l-16.42,38.59
		c2.14-9.29,5-18.58,7.14-27.87c13.57-51.45,59.99-290.86-54.99-132.92C1765.76,634.14,1755.76,697.75,1767.19,764.21z
		 M1949.28,694.89c0-1.43,0.71-4.29,1.43-8.58c1.43-0.71,2.14-4.29,2.14-10c0.71-1.43,1.43-2.14,2.14-2.86
		c-2.14,10-5,19.3-7.14,27.87L1949.28,694.89z M1947.86,701.32v1.43V701.32z"/>
</g>
<g id="n_1_">
	<path d="M1462.24,652.72c0.71-1.43,6.43-6.43,7.14-6.43c10,1.43,31.42-7.15,39.99-2.86c0.71,0,1.43,0.71,1.43,2.14
		c-1.43,3.57-1.43,5.72,0,8.58h-1.43c-0.71,0.71-0.71,1.43-0.71,1.43c1.43,0.71,2.14,0.71,2.14,0.71l1.43-0.71
		c0-0.71,0.71-1.43,0.71-2.14v7.86c-5.71,28.59-5,35.02-9.28,63.6c21.42-29.3,37.13-62.17,57.84-92.19
		c3.57-17.87,59.99,0,57.13,11.43c-1.43,9.29-3.57,19.3-5.71,28.59v2.14c-2.14,10-4.28,20.01-7.14,30.01v0.71
		c-1.43,7.15-3.57,14.29-6.43,28.59c-6.43,26.44-7.86,52.17-7.86,77.9c24.28-30.01,64.27-70.75,64.98-71.46
		c-20.71,32.87-76.41,150.79-88.55,149.36c-10.71-1.43-42.85-8.58-43.56-17.15c-0.71-1.43-3.57-11.43-2.86-13.58
		c20-58.6,20.71-99.33,29.28-169.37c-8.57,15.72-17.85,31.44-25.71,47.17c-17.14,36.45-34.99,72.18-35.71,112.2
		c0,1.43,0,3.57-1.43,5.72v-1.43c0,0-0.71,0-2.14,0.71l0.71-0.71v-7.86c0-3.57,0.71-5.72,0.71-7.15c0,0.71-0.71,1.43-1.43,2.14
		c-0.71,3.57-0.71,5.72-1.43,6.43h-1.43l-0.71,0.71v2.14c0.71-0.71,0.71-0.71,0.71,0v0.71c-0.71,2.86-2.14,5.72-2.86,10
		c-0.71,0.71-1.43,2.14-1.43,3.57c0,2.14-0.71,3.57-1.43,5c-1.43,1.43-2.86,2.14-3.57,2.86c-6.43,2.86-32.85,0-33.56-8.58
		c-1.43-12.15,2.14-34.3,0.71-47.88c0.71-2.86,0.71-5.72,0.71-8.58c2.14-45.74,17.85-100.05,12.85-109.34
		C1461.53,676.31,1455.1,674.88,1462.24,652.72z"/>
	<path d="M1480.09,866.4c1.43-2.14,2.86-5,2.86-6.43v-2.14c0.71,0,1.43,0,2.86-0.71v2.14
		C1483.66,862.11,1481.52,864.26,1480.09,866.4z"/>
	<path d="M1508.66,659.16c-0.71,2.14-0.71,3.57-0.71,3.57v6.43l0.71,0.71v-0.71c0.71-2.86,0.71-4.29,1.43-4.29
		c-0.71-2.14,0-3.57,0.71-3.57l0.71-0.71l-0.71,1.43c0,0.71,0.71,0.71,1.43,0v-2.86l-0.71-0.71c-0.71,0-2.14,0-3.57-0.71
		C1507.94,657.73,1507.94,658.44,1508.66,659.16z"/>
	<path d="M1586.5,689.17c-0.71,0-1.43,2.14-2.86,5c0,5-1.43,9.29-2.14,11.43c0,0.71,0,1.43,0.71,0.71c0.71,0,0.71-0.71,0.71-1.43
		c1.43-1.43,2.14-2.86,1.43-3.57c0.71-0.71,1.43-1.43,0.71-2.86c1.43-2.14,2.14-5,2.86-8.58L1586.5,689.17z"/>
	<path d="M1591.49,680.59c0.71-2.14,0.71-2.86,0.71-2.86c0-1.43,0-5.72,1.43-12.86h-1.43c-1.43,2.86-1.43,5-1.43,5
		c-0.71,0-0.71,2.86-0.71,7.15c-1.43,2.14-2.14,4.29-2.86,7.86v0.71c0.71-1.43,2.14-2.14,3.57-3.57l1.43-0.71
		c0,2.14-0.71,2.86-0.71,2.86c0.71,2.86,0,4.29-0.71,4.29v4.29c-0.71,0-1.43,2.14-1.43,5.72v0.71l1.43-0.71
		c0.71-5.72,2.14-9.29,2.86-11.43c0.71-1.43,0.71-2.14,0.71-2.86c-0.71,0,0.71-1.43,2.14-4.29c-0.71-1.43-0.71-3.57,0-6.43
		c-0.71,0.71-1.43,2.86-2.86,6.43L1591.49,680.59z"/>
	<path d="M1597.92,664.16c-1.43,0.71-1.43,2.14-1.43,3.57c-0.71,1.43-0.71,2.86,0.71,5c0,0,0-0.71,0.71-1.43
		c0-2.14,0-2.86,0.71-3.57c0.71,0,1.43-2.86,1.43-7.15C1598.64,662.01,1597.92,663.44,1597.92,664.16z"/>
</g>
<g id="i">
	<path d="M1430.81,669.88c-9.28,35.02-17.85,70.03-27.14,105.77c0-0.71,0-0.71,0-0.71l-0.71-1.43c0-0.71,0.71-1.43,0.71-2.86
		l-0.71-0.71v-0.71v-1.43v-0.71l-0.71,0.71c-0.71,0-0.71,0.71-0.71,1.43h-1.43v0.71c0.71,1.43,0.71,2.14-0.71,2.86
		c0,2.14,0.71,2.86,0.71,2.86c-0.71,1.43-1.43,2.86-2.14,2.86l0.71,0.71c0.71,0,0.71-0.71,0.71,0c0,0,0,1.43-0.71,2.86
		c0,0-0.71,0.71-0.71,1.43c-1.43,0.71-1.43,1.43-0.71,2.14h-0.71v2.14c0,0.71,0,0.71,0,0.71s-0.71,0-1.43,0v0.71
		c0.71,0,1.43,0.71,1.43,0.71s-0.71,0.71-2.14,0.71v1.43c0,0,0.71,0,0.71,0.71v2.14c-0.71,0-0.71,0.71-0.71,0.71
		c0.71,2.14,0.71,3.57,0,4.29l-0.71,0.71l0.71,1.43l-1.43,1.43l1.43,7.15l0.71-3.57c0.71,0,0.71-0.71,1.43-2.14l-0.71-1.43
		l0.71-0.71l-0.71-0.71c0-1.43,0.71-2.14,1.43-2.86c0.71,0,0.71-0.71,0.71-1.43h-0.71c0.71-0.71,1.43-1.43,1.43-1.43l-0.71-2.86
		h0.71l0.71-0.71c-0.71,0-0.71,0-0.71-0.71c0,0,0-0.71,0.71-1.43v-0.71l0.71-0.71l-0.71-0.71c0-0.71,0-1.43,0-2.86
		c1.43-1.43,2.14-2.86,2.14-3.57c-0.71-1.43,0-2.86,0.71-5h1.43l0,0c-0.71,4.29-2.14,7.86-2.86,11.43
		c-0.71,2.86-2.86,16.44-3.57,19.3c1.43,0.71,5-10,7.14-9.29c31.42-36.45,48.56-50.74,77.84-87.19l-58.56,107.91
		c-6.43,12.15-10.71,23.58-16.42,33.59c-5,8.58-15,22.15-18.57,21.44c-11.43-1.43-25.71-6.43-29.99-15.72
		c-6.43-13.58-6.43-31.44-9.28-49.31c0.71-17.87,17.14-72.18,25.71-117.91l0.71,0.71c-1.43,2.14-1.43,4.29-1.43,5v0.71v2.14
		l0.71-0.71c1.43-2.14,2.14-4.29,2.14-7.15c0.71,0,1.43-0.71,1.43-2.14l0.71-0.71c0.71,0,0.71,0,1.43,1.43
		c-0.71,0-0.71,1.43-0.71,2.86c0,0.71-0.71,2.14-1.43,5c0,0-0.71,0.71-0.71,2.14l-0.71,0.71c-0.71,0-1.43,1.43-1.43,4.29
		c-0.71,1.43-1.43,2.86-1.43,4.29v0.71v1.43l0.71,0.71l1.43-0.71c0.71,0,0.71-0.71,0.71-0.71c0.71,0,0.71,0,0.71,0h0.71
		c0,0,0-1.43,0-3.57c0.71-0.71,1.43-1.43,1.43-1.43v-2.86l1.43-4.29c0,0,0.71-0.71,0.71-2.86c0,0,0.71,0,0.71-1.43l-1.43-2.86h-0.71
		c1.43-1.43,2.14-4.29,2.86-7.15c0.71-2.14,1.43-3.57,2.14-4.29v-1.43c-0.71-0.71-1.43-1.43-1.43-1.43l-0.71,0.71
		c-0.71,2.14-1.43,3.57-2.14,3.57l0.71,2.14l-1.43,2.86h-0.71c-0.71,0-1.43,0-1.43-0.71c0-3.57,0.71-5,2.14-5.72
		c0.71-2.14,0.71-2.86,1.43-2.86v-1.43l-0.71-0.71v-0.71v-0.71v-1.43h-0.71l0.71-1.43v-2.14l-0.71-0.71h0.71
		c0.71-0.71,1.43-1.43,1.43-2.86l-0.71-0.71c1.43-2.14,2.14-3.57,2.14-3.57l-0.71-2.14v-0.71c0-0.71,0-0.71,1.43-1.43
		c0-1.43,0-2.86,0-3.57l1.43-0.71c0,0,0-0.71,0-2.14c0,0,0,0,0-0.71l-1.43,1.43v0.71l-0.71-0.71c-0.71,0.71-0.71,0.71-0.71,0.71
		h-0.71l-1.43,4.29c0,0,0,1.43-0.71,4.29c0,0,0,1.43,0,3.57l0.71,0.71l-1.43,1.43c0,0.71-0.71,0.71-1.43,1.43
		c0.71-7.15,1.43-13.58,1.43-19.3c0.71-15.72,24.28-8.58,35.71-7.86l0,0C1431.52,641.29,1435.81,652.72,1430.81,669.88z"/>
	<path d="M1447.95,576.97L1447.95,576.97c-0.71,2.86-1.43,6.43-2.86,10c-2.14,7.86-3.57,15.72-4.28,22.87
		c-2.14,15.72-24.99,8.58-36.42,8.58c-12.14-0.71-16.42-7.86-15-19.3l0,0c0.71-2.86,1.43-5.72,2.86-9.29
		c1.43-8.58,3.57-16.44,4.28-23.58c2.14-15.72,24.99-8.58,36.42-7.86l0,0C1445.09,558.39,1449.38,565.54,1447.95,576.97z"/>
	<path d="M1435.81,599.84v-0.71h-6.43c-3.57,0.71-6.43,1.43-7.14,2.14l0.71,0.71l3.57-0.71l0.71,0.71c3.57,0,5.71,0,6.43,0.71
		L1435.81,599.84z"/>
	<path d="M1446.52,601.27c-0.71,0-0.71,0-1.43-0.71l-0.71,1.43h1.43L1446.52,601.27z"/>
</g>
<g id="t">
	<path d="M1235.86,618.42c-15.71-0.71,3.57-20.72,5-30.73c1.43-7.15,3.57-15.01,7.86-15.01c11.43-0.71,34.28,3.57,52.13,2.86
		c8.57-24.3,6.43-39.3,5.71-60.74c5-11.43,14.28-12.86,42.13-10.72c5,0.71,16.42,0,14.28,5l-1.43,2.14l0.71,1.43h0.71l0.71-1.43
		l0.71,1.43l-1.43,3.57c0,1.43,0,2.14-1.43,2.86v2.14c0.71,0,1.43,0,1.43,0.71c0,2.14-0.71,4.29-1.43,4.29c0,2.86-0.71,5-1.43,7.15
		c0.71,2.14,0,3.57-0.71,5.72c0,0.71,0,2.14-0.71,4.29c0,2.86-2.14,16.44-2.86,21.44c0,1.43,0,2.86-1.43,5l0.71,2.14
		c1.43-0.71,2.14-1.43,1.43-3.57c0.71,0,3.57-12.15,4.28-17.15l2.14-2.86c0.71-0.71,1.43-2.14,2.86-5h0.71
		c-3.57,16.44-7.14,24.3-7.86,38.59c62.84,7.15,132.82,13.58,183.53,21.44c-3.57,0-15.71,0.71-32.14,1.43v-0.71h-6.43l-2.86-0.71
		c-0.71,0.71-2.14,0.71-5,0.71c-7.14-0.71-11.43-0.71-11.43,0c-2.14-0.71-4.28-0.71-7.86-0.71l-2.86-0.71h-0.71v-0.71
		c-2.14,1.43-4.28,1.43-5.71,1.43c-3.57,0.71-5.71,0.71-7.14,0.71c-2.86-0.71-5.71-0.71-7.86,0.71c-2.86,0-5,0.71-5,0.71l-2.14-1.43
		l-1.43-0.71c-1.43,0-2.14,0-2.86,0.71h-10c-0.71,0.71-2.86,0.71-6.43,0.71l-1.43-1.43l-2.86-0.71c-2.14,0-3.57,0.71-4.28,1.43
		c-3.57-0.71-6.43-0.71-6.43,0c-3.57-0.71-5-0.71-5.71,0l0.71,0.71c-1.43,0.71-2.14,0.71-2.86,0.71h-0.71c0-0.71,0-1.43-0.71-1.43
		h-5l-2.86-0.71l-1.43,1.43c0,0,0,0.71,1.43,0.71h-2.14l-0.71,1.43h-2.14l-0.71,0.71l2.14,0.71l1.43-1.43h2.86
		c2.14-0.71,3.57-0.71,3.57-0.71h0.71c0.71,0,1.43,0,0.71,0.71l-0.71,0.71l0.71,0.71c0.71,0,2.14,0,4.28-0.71
		c4.28,0,6.43,0,7.14-0.71l2.86,0.71l5-0.71l5.71,1.43c-37.13,1.43-69.27,2.86-69.98,3.57c-2.86,2.14-4.28,16.44-5.71,22.15
		c-5.71,29.3-12.85,65.75-13.57,67.18c-0.71,2.14-0.71-2.86-1.43-0.71l-0.71,2.86c-6.43,30.73-12.14,81.47-15,110.05
		c11.43-20.72,70.7-95.76,77.84-110.05c-29.99,73.61-76.41,160.08-89.26,211.53c-1.43,9.29-7.14,12.15-15,14.29
		c-12.14-0.71-36.42-25.73-34.99-42.88c1.43-23.58,2.14-50.74,7.86-79.32c22.85-107.2,27.14-156.51,36.42-194.38
		C1297.99,612.7,1244.43,613.42,1235.86,618.42z"/>
	<path d="M1262.99,869.97c-2.14,2.14-2.86,2.86-2.14,3.57v0.71l2.86-1.43c0.71,0,0.71,0,0.71-0.71l-1.43-4.29l-0.71,0.71
		L1262.99,869.97z"/>
	<path d="M1260.85,878.55l0.71,2.86c0-2.86,0-4.29,0.71-4.29l-0.71-0.71C1260.85,876.4,1260.85,877.12,1260.85,878.55z"/>
	<path d="M1262.99,864.26c1.43,0,1.43-0.71,1.43-1.43l-0.71-1.43h-1.43L1262.99,864.26z"/>
	<rect x="1265.14" y="885.7" width="0.71" height="0.71"/>
	<path d="M1265.85,839.96h0.71v-1.43C1266.57,838.53,1265.85,839.24,1265.85,839.96z"/>
	<path d="M1266.57,832.1c1.43-2.14,2.14-2.86,2.14-3.57h-0.71l-0.71-1.43v-0.71c0-0.71,0-2.14,1.43-3.57c0-0.71,0-0.71-0.71-0.71
		C1266.57,823.52,1265.85,827.1,1266.57,832.1z"/>
	<path d="M1271.56,790.65h0.71c2.14-1.43,2.86-2.14,2.86-2.14c-0.71,0-1.43,0-2.14-0.71l-1.43,0.71c0,0-0.71,0-0.71,0.71
		C1270.85,789.22,1271.56,789.93,1271.56,790.65z"/>
	<path d="M1363.68,536.24l-0.71,0.71v0.71h0.71C1364.4,537.67,1364.4,536.95,1363.68,536.24z"/>
	<path d="M1370.11,514.08c0,0.71,0,2.14-0.71,2.86l0.71,2.86c-1.43,3.57-2.14,5-2.86,5h-0.71l-0.71-0.71
		c-0.71,1.43-1.43,2.86-1.43,5.72v0.71l2.86-0.71v0.71c-0.71,0.71-0.71,1.43-0.71,1.43c-1.43,0.71-2.14,1.43-2.14,2.14
		c0.71,0.71,0,1.43-0.71,2.14c2.14,0,3.57-1.43,4.28-3.57l0.71-0.71c0.71-2.14,0.71-4.29,1.43-6.43c1.43-7.15,2.14-12.15,1.43-16.44
		C1370.83,511.94,1370.11,514.08,1370.11,514.08z"/>
	<path d="M1375.82,606.27l-2.14-0.71c-0.71,0-1.43,0-2.14,0.71c-0.71,0-0.71,0.71,0,0.71h0.71c0-0.71,0.71-0.71,0.71-0.71l3.57,0.71
		L1375.82,606.27z"/>
	<path d="M1375.11,690.6c0-1.43,0.71-2.14,0.71-3.57c0,0.71,0,0.71,0,0.71C1375.82,689.17,1375.82,689.89,1375.11,690.6
		L1375.11,690.6z"/>
	<path d="M1380.11,600.56l0.71-0.71h-5v0.71C1377.97,600.56,1379.4,601.27,1380.11,600.56z"/>
	<path d="M1377.97,673.45v0.71l0,0C1377.97,674.16,1377.97,674.16,1377.97,673.45z"/>
	<path d="M1385.11,605.56c0,0,0-0.71-0.71-0.71c-0.71,0.71-2.14,0.71-2.86,0c0,0.71,0,1.43-0.71,2.14l2.86,0.71L1385.11,605.56z"/>
</g>
<g id="s_1_">
	<path d="M1140.54,842.1c25.71,2.86,76.41-13.58,62.13-26.44c-3.57-3.57-6.43-5.72-10-8.58c-17.85-15.01-35.71-28.59-45.7-43.59
		c-5-7.15-13.57-16.44-15-24.3c-3.57-26.44,30.71-104.34,67.84-109.34c10.71-2.86,31.42-4.29,40.7,10.72
		c0.71-3.57,1.43-6.43,2.14-8.58c5-14.29,20.71-3.57,29.99-1.43c34.99,8.58-25.71,38.59-42.85,100.76c-5-0.71-1.43-36.45,3.57-60.74
		c-7.14-2.14-17.14,0.71-26.42,12.15c-19.28,22.87-27.14,43.59-19.99,64.32c2.14,5,4.28,10.01,7.85,15.01
		c2.14,2.86,5,6.43,7.86,9.29c8.57,9.29,20,19.3,34.28,30.01c15.71,11.43,17.14,32.87,15,42.88c-3.57,15.72-25.71,24.3-48.56,32.16
		v-0.71h0.71l0.71-1.43h-0.71v-0.71c0-0.71-0.71-1.43,0-1.43h0.71v1.43h0.71c0.71-1.43,0.71-2.14,0-2.14v-0.71h0.71v-0.71
		c0.71,0,0.71,0,0-0.71c-0.71,0.71-1.43,1.43-2.86,1.43c-0.71,0-0.71,0.71-1.43,0.71c-0.71,0-2.14,0.71-3.57,1.43
		c-0.71-0.71-1.43-0.71-2.14-0.71l-1.43,1.43c0,0.71-1.43,0.71-2.14,0.71c-0.71,0.71-1.43,1.43-2.14,0.71l-0.71,0.71h-0.71
		c-2.14,0.71-3.57,1.43-3.57,0.71l-0.71,0.71h-2.14l-0.71,0.71c-0.71,0-2.14,0.71-2.14,1.43c-0.71-0.71-1.43,0.71-2.86,1.43
		l-0.71-0.71c-1.43,0.71-3.57,1.43-7.14,1.43v-0.71c0,0-0.71,0.71-2.14,1.43h-2.14c0,0-0.71,0.71-1.43,0.71v-0.71l-0.71,0.71
		c-0.71,0.71-1.43,0.71-2.14,0.71s-12.14,2.14-12.14,2.14h-13.57l-0.71-0.71c-0.71,0.71-1.43,0.71-2.14,0
		c-1.43,0.71-2.86,0.71-2.86,0c-1.43,0.71-2.14,0-2.86,0c-0.71,0-2.14,0-3.57-0.71c0,0.71-0.71,0.71-2.14,0h-2.86
		c-13.57-8.58-17.85-25.73-11.43-42.88c6.43-15.01,28.56-32.16,42.85-36.45C1118.4,829.95,1124.11,840.67,1140.54,842.1z"/>
	<path d="M1121.26,886.41l0.71,0.71c-0.71-0.71-1.43-0.71-1.43-0.71H1121.26z"/>
	<path d="M1121.97,887.12c0.71-0.71,1.43,0,3.57,0.71c0.71-0.71,0.71-0.71,1.43-0.71l-0.71,1.43h-0.71
		C1124.11,887.84,1122.68,887.12,1121.97,887.12z"/>
	<path d="M1135.54,889.98c0.71-0.71,1.43-0.71,2.86,0c0.71,0,0.71,0,0.71-0.71c0.71,0,0.71,0,1.43,0.71h1.43
		c-0.71,0-0.71,0-0.71-0.71h0.71c0.71,0,1.43-0.71,1.43-0.71c0.71,0,2.14,0.71,2.86,0h0.71l0.71,1.43l1.43-1.43h2.86v0.71h1.43v0.71
		h-2.86v0.71h-15.71L1135.54,889.98z"/>
	<path d="M1155.53,889.98v-0.71v-0.71h-0.71v-0.71c0,0-0.71,0-1.43,1.43c0,0,0.71,0.71,1.43,0.71H1155.53z"/>
	<path d="M1156.25,888.55h0.71l0.71-0.71h-0.71C1156.25,887.84,1156.25,887.84,1156.25,888.55z"/>
	<path d="M1165.53,844.25l-0.71-0.71l0.71-0.71v-0.71h-1.43v1.43c-0.71-0.71-1.43-0.71-2.14-0.71c0,0.71,0,0.71,0.71,1.43h-0.71
		l-1.43-0.71l-0.71,0.71c-0.71,0-1.43,0-2.86,0.71h0.71c1.43,0.71,2.14,0.71,2.86,0l2.86,0.71c1.43-0.71,1.43-1.43,1.43-1.43
		H1165.53z"/>
	<path d="M1170.53,841.39c0,0-0.71,0.71-1.43,0.71s-0.71-0.71-0.71-0.71h-1.43v1.43h-0.71v1.43c0.71,0,0.71-0.71,0.71-0.71
		c1.43,0.71,2.14,0.71,2.86,0c1.43-0.71,2.14-0.71,3.57-1.43h-0.71C1172.67,842.1,1171.96,842.1,1170.53,841.39z"/>
	<path d="M1183.38,838.53c-0.71-0.71-2.14,0-2.86,0.71l-0.71,0.71c-0.71,0-1.43,0-2.14,0.71l-0.71-0.71c0.71,0,0.71,0,0.71-0.71
		c-0.71,0.71-1.43,0.71-2.14,0.71c0,0.71-0.71,1.43-1.43,1.43v0.71l1.43,0.71l2.14,0.71v-0.71h-2.14v-0.71l0.71-0.71
		c0,0,0.71,0.71,0.71,0c0.71,0,0.71,0,1.43-0.71c0.71,0,1.43,0,2.86-0.71c0.71,0,1.43-0.71,2.86-1.43H1183.38z"/>
	<polygon points="1177.67,884.27 1176.96,884.27 1176.96,884.98 	"/>
	<path d="M1180.53,883.55c7.14-2.14,15-5,22.85-7.15l-0.71-0.71h-2.14c-1.43,0.71-2.14,1.43-2.14,0.71
		c-1.43,1.43-2.14,1.43-3.57,1.43v-1.43c0,0,1.43,0,3.57-0.71v-0.71c0.71-0.71,0.71-0.71,0-0.71h-1.43v1.43l-1.43-0.71l-0.71,0.71
		c0-0.71-0.71-0.71-1.43,0v0.71h-2.86c0,0.71-0.71,0.71-1.43,1.43c-0.71-0.71-1.43-0.71-2.14,0l-0.71,0.71l0.71,0.71
		c0.71-0.71,1.43-0.71,2.14-0.71c0,0,0.71,0,2.86-0.71c0.71,0,1.43-0.71,1.43-0.71l0.71,0.71l-2.14,1.43h-1.43
		c-0.71,0-1.43,0.71-2.14,0.71l-0.71,0.71h-2.14v0.71h-1.43c-0.71,0-1.43,0.71-1.43,0.71c-0.71,0-2.14,0-2.86,0.71
		c-0.71,0-1.43,0-2.14,0.71h0.71v0.71C1179.1,884.27,1179.81,883.55,1180.53,883.55z"/>
	<path d="M1186.24,878.55h-0.71c-0.71,0.71-2.14,0.71-2.86,0c-1.43,1.43-1.43,1.43-2.14,0.71c-0.71,0.71-1.43,1.43-2.14,1.43v0.71
		c1.43,0,2.14-0.71,2.14-0.71c0.71,0,0.71-0.71,1.43-0.71l0.71-0.71c0.71,0.71,1.43,0.71,2.86,0.71L1186.24,878.55z"/>
	<path d="M1204.09,874.26c-0.71,0-1.43,0.71-2.14,0c-0.71,0-1.43,0-2.86,0.71v-0.71h0.71v-0.71c1.43,0.71,1.43,0,2.14,0h0.71v0.71
		C1203.38,873.55,1203.38,873.55,1204.09,874.26z"/>
	<path d="M1209.09,870.69h2.86v-0.71h1.43c0.71-0.71,1.43-1.43,2.14-1.43c0,0,0.71,0,1.43,0.71v-0.71h0.71l0.71-0.71
		c0,0,0.71,0,1.43-0.71v0.71l0.71-0.71v-1.43l-1.43,0.71c0-0.71-0.71,0-2.14,0.71c0,0-0.71,0-2.14,0.71c0,0-0.71,0-1.43,0.71h-1.43
		c-0.71,0-0.71,0-2.14,1.43L1209.09,870.69z"/>
	<path d="M1222.66,864.97c0,0,0,0.71-0.71,2.14c0.71-0.71,0.71-0.71,1.43-0.71l2.14-1.43c0-0.71,0.71-0.71,0.71-0.71v-0.71
		l-2.14,1.43H1222.66z"/>
</g>
<g id="e">
	<path d="M1154.45,737.05c-41.42,52.17-74.27,71.46-98.55,87.19c-19.99-7.15-24.28-25.01-19.99-45.74
		c27.85-14.29,62.84-30.01,82.12-49.31c15-14.29,17.14-25.01,10-52.17c-2.86-11.43-5-19.29-13.57-28.59
		c-18.57-23.58-67.13-22.15-89.26,16.44c-0.71,1.43-1.43,2.86-2.14,3.57v0.71c0,0.71,0,0.71-0.71,0.71
		c-3.57,6.43-7.14,12.15-10,19.3h0.71c0,0.71-0.71,0.71-2.14,2.14v1.43l-0.71,0.71c-0.71,0.71-0.71,1.43-1.43,2.14v1.43
		c-0.71,0.71-0.71,1.43-1.43,1.43v0.71c0.71,0.71,0.71,1.43,0.71,1.43v0.71h-1.43v1.43c-0.71,0-0.71,0.71-1.43,0.71
		c-0.71,1.43-0.71,2.14-1.43,3.57v0.71c-14.28,32.16-22.85,67.89-16.42,99.33c4.28,21.44,15.71,40.73,37.85,56.46
		c10.71,8.58,20.71,11.43,27.85,7.86c20-10.01,92.83-100.76,104.26-135.07C1155.88,737.05,1154.45,736.34,1154.45,737.05z
		 M1095.89,663.44c7.14,23.58-24.99,73.61-57.84,87.9C1051.62,722.04,1069.47,682.74,1095.89,663.44z"/>
</g>
<g id="d">
	<path d="M967.89,846.39v-5l-1.43,2.14h-0.71l0.71-0.71h-1.43l-1.43,0.71c0.71,1.43,0,3.57-2.14,5.72l-1.43-0.71l2.14-6.43
		l-0.71-1.43l-0.71-0.71l0.71-2.86l-1.43-3.57c0-0.71,0.71-2.14,2.14-5v-0.71h-1.43l-0.71-1.43l2.14-0.71
		c0.71,0,0.71-2.14,0.71-5.72l1.43-1.43l1.43-0.71c0.71-3.57,1.43-6.43,1.43-10.01c0.71-2.14,1.43-3.57,1.43-3.57v-0.71l-1.43-0.71
		v-2.86c1.43-2.86,1.43-5,0.71-5.72h2.14c0.71-13.58,2.14-27.16,4.28-40.73v-0.71h0.71c0.71-3.57,1.43-7.15,2.14-11.43
		c0-1.43,0.71-2.86,0.71-4.29v-0.71l0.71-0.71c-0.71-1.43,0-2.86,0.71-5c2.14-8.58,4.28-18.58,6.43-28.59l-0.71-0.71l1.43-0.71
		c0-2.14,0.71-3.57,1.43-5.72l-0.71-0.71l0.71-0.71c1.43-6.43,2.86-12.15,4.28-18.58c0,0,0-0.71,0.71-1.43v-0.71
		c-1.43-2.86-0.71-6.43,1.43-10.01c0-3.57,0-5.72,0.71-5.72c1.43-2.14,1.43-4.29,0.71-7.15c0.71-0.71,0.71-2.14,0-4.29
		c1.43-2.14,1.43-2.86,1.43-3.57c1.43-2.14,2.14-4.29,2.86-5.72l-1.43-0.71c1.43-2.86,2.14-5,1.43-5.72l2.86-1.43
		c13.57-55.74,27.85-114.34,39.28-155.79c2.14-5.72-1.43-17.15-4.28-17.87c-15-1.43-30.71-2.14-46.42,1.43
		c-5.71,0.71-15,12.86-17.85,20.01c-3.57,47.17-21.42,142.93-33.56,185.8c-7.14-14.29-35.71-20.72-49.27-20.72
		c-32.14,1.43-80.69,114.34-68.55,184.38c3.57,23.58,12.85,33.59,32.85,41.45c22.14,9.29,37.85,10,47.13-16.44
		c3.57-10,10-19.3,13.57-28.59c2.86,41.45-8.57,55.74-1.43,101.48c2.14,12.86,13.57,9.29,27.14,6.43
		c34.99-3.57,32.14-16.44,36.42-32.16c2.86-12.15,7.14-25.01,12.14-37.16l10-26.44l43.56-90.04l13.57-28.59
		C1017.16,763.49,1000.73,797.8,967.89,846.39z M932.89,693.46c-4.28,21.44-4.28,29.3-12.85,50.02
		c-8.57,20.72-28.56,53.6-39.99,73.61c-27.14,0,4.28-96.48,9.28-117.2c5-20.72,29.28-26.44,40.7-17.15
		C932.18,684.17,933.61,691.31,932.89,693.46z"/>
</g>
<g id="n">
	<path d="M664.32,652.72c0.71-1.43,6.43-6.43,7.14-6.43c10,1.43,31.42-7.15,39.99-2.86c0.71,0,1.43,0.71,1.43,2.14
		c-1.43,3.57-1.43,5.72,0,8.58h-1.43c-0.71,0.71-0.71,1.43-0.71,1.43c1.43,0.71,2.14,0.71,2.14,0.71l1.43-0.71
		c0-0.71,0.71-1.43,0.71-2.14v7.86c-5.71,28.59-5,35.02-9.28,63.6c21.42-29.3,37.13-62.17,57.84-92.19
		c3.57-17.87,59.99,0,57.13,11.43c-1.43,9.29-3.57,19.3-5.71,28.59v2.14c-2.14,10.01-4.28,20.01-7.14,30.01v0.71
		c-1.43,7.15-3.57,14.29-6.43,28.59c-6.43,26.44-7.86,52.17-7.86,77.9c24.28-30.01,64.27-70.75,64.98-71.46
		C837.84,773.5,782.14,891.41,770,889.98c-10.71-1.43-42.85-8.58-43.56-17.15c-0.71-1.43-3.57-11.43-2.86-13.58
		c20-58.6,20.71-99.33,29.28-169.37c-8.57,15.72-17.85,31.44-25.71,47.17c-17.14,36.45-34.99,72.18-35.71,112.2
		c0,1.43,0,3.57-1.43,5.72v-1.43c0,0-0.71,0-2.14,0.71l0.71-0.71v-7.86c0-3.57,0.71-5.72,0.71-7.15c0,0.71-0.71,1.43-1.43,2.14
		c-0.71,3.57-0.71,5.72-1.43,6.43h-1.43l-0.71,0.71v2.14c0.71-0.71,0.71-0.71,0.71,0v0.71c-0.71,2.86-2.14,5.72-2.86,10
		c-0.71,0.71-1.43,2.14-1.43,3.57c0,2.14-0.71,3.57-1.43,5c-1.43,1.43-2.86,2.14-3.57,2.86c-6.43,2.86-32.85,0-33.56-8.58
		c-1.43-12.15,2.14-34.3,0.71-47.88c0.71-2.86,0.71-5.72,0.71-8.58c2.14-45.74,17.85-100.05,12.85-109.34
		C663.6,676.31,657.17,674.88,664.32,652.72z"/>
	<path d="M682.17,866.4c1.43-2.14,2.86-5,2.86-6.43v-2.14c0.71,0,1.43,0,2.86-0.71v2.14C685.74,862.11,683.6,864.26,682.17,866.4z"
		/>
	<path d="M710.73,659.16c-0.71,2.14-0.71,3.57-0.71,3.57v6.43l0.71,0.71v-0.71c0.71-2.86,0.71-4.29,1.43-4.29
		c-0.71-2.14,0-3.57,0.71-3.57l0.71-0.71l-0.71,1.43c0,0.71,0.71,0.71,1.43,0v-2.86l-0.71-0.71c-0.71,0-2.14,0-3.57-0.71
		C710.02,657.73,710.02,658.44,710.73,659.16z"/>
</g>
<g id="a">
	<path d="M610.62,807.09c0-2.86,0-5.72,0.71-8.58c10-39.3,19.99-79.32,30.71-118.63c4.28-17.87,0-29.3-15.71-29.3
		c-18.57-0.71-37.13,0-55.7-0.71c-13.57-0.71-23.57,5.72-30.71,17.87c-37.13,55.03-94.26,133.64-63.56,191.52
		c8.57,15.72,24.99,22.15,44.28,19.3c19.28-3.57,24.28-20.72,30.71-35.73c3.57-7.86,5.71-15.01,8.57-23.58
		c3.57,17.87,2.86,35.73,10,49.31c4.28,8.58,17.85,13.58,29.28,15.72c3.57,0.71,13.57-13.58,18.57-21.44
		c6.43-10,10.71-21.44,16.42-34.3l55.7-116.49C679.89,724.9,619.91,809.94,610.62,807.09z M587.06,708.47l-1.43,1.43v2.14
		c0,0,0,0.71,0.71,1.43l-0.71,1.43l0.71,0.71c0,0-0.71,0.71-1.43,1.43c0,0.71-0.71,2.86-2.14,7.15c0,0,0,0.71,0,2.14
		c-0.71,0.71-1.43,2.14-1.43,4.29c0,0-0.71,0.71-1.43,2.14v0.71c0,0.71-0.71,2.14-0.71,4.29c-0.71,0-0.71,0.71-1.43,2.86
		c-0.71,0-0.71,0.71-0.71,2.14c-0.71,0-0.71,0.71-0.71,2.14v0.71v0.71h-0.71v0.71v0.71c-1.43,0-2.14,1.43-2.14,4.29
		c-0.71,0-1.43,0.71-2.14,1.43c0,2.14,0,4.29-0.71,5h0.71c0-0.71,0.71-1.43,1.43-2.14c0-0.71,0-0.71-0.71-0.71
		c0.71,0,1.43-0.71,2.14-2.14c0,0,0-0.71,0-1.43l2.14-1.43c0-0.71,0-1.43,0-2.14c0-0.71,0.71-1.43,2.14-2.14
		c0-1.43,0.71-2.14,0.71-2.86c0,0,0,0-0.71,0v-2.14c0.71,0,1.43-1.43,1.43-2.86c0.71-2.14,2.14-2.86,2.86-2.86l-0.71-1.43h0.71h0.71
		c0,0.71,0,0.71,0.71,0.71l0.71,0.71c-0.71,0.71-1.43,2.14-1.43,3.57c-0.71,0-0.71,1.43-0.71,3.57c0,0-0.71,0-0.71,0.71v2.14h-0.71
		c-0.71,0-0.71,1.43-1.43,2.86c0,0-0.71,0.71-1.43,2.86c0,0-0.71,0.71-0.71,2.14c-0.71,0-0.71,0.71-0.71,2.14
		c-0.71,0.71-0.71,2.14-1.43,3.57c0,0-0.71,0.71-1.43,2.86c-0.71,0-1.43,1.43-1.43,2.86c0,0.71-0.71,1.43-1.43,2.86
		c-0.71,0.71-0.71,0.71-0.71,1.43c0,0.71-0.71,2.14-1.43,2.86c0,0.71-0.71,1.43-1.43,2.86l-0.71,3.57c-1.43,0-2.14,0.71-2.14,2.14
		c0,0-0.71,0.71-0.71,1.43c0,0.71,0,1.43-0.71,1.43h-0.71c-1.43,1.43-2.14,2.86-2.14,2.86v0.71c0,0-0.71,0.71-1.43,0.71v-0.71h-0.71
		l-0.71,0.71v0.71c0,0,0.71,0,1.43,0v1.43c-0.71,0-1.43,0.71-1.43,2.14c0,0-0.71,0-2.14,0.71c0,1.43,0,2.14,0,2.14
		c-0.71,0-0.71,0-1.43,0.71h-0.71v-0.71l0.71-1.43h-1.43c0,0.71-0.71,0.71-0.71,1.43c-0.71,0.71-0.71,1.43-1.43,2.14h0.71v1.43
		c0,1.43-0.71,2.14-2.14,2.86l-0.71-0.71c0,0,0,0,0,0.71v0.71c-1.43,1.43-2.14,2.14-2.14,2.86h-0.71
		c-7.14,11.43-16.42,21.44-27.85,31.44c-2.86-35.73,44.99-128.63,75.7-143.64c-2.14,5-5,10.01-7.14,15.01L587.06,708.47z"/>
</g>
<g id="l">
	<path d="M519.03,477.64c0,0.71,0,1.43,0.71,2.86c0,2.14-0.71,5.72-2.14,11.43c-0.71,0.71-0.71,2.86-2.14,6.43
		c-4.28,14.29-10,33.59-12.85,51.45c-17.85,107.91-36.42,185.09-49.27,295.14c-0.71,7.15,15-6.43,12.14-2.14
		c-9.28,15.72-16.42,32.87-27.85,31.44c-13.57-0.71-39.28-4.29-37.85-12.86l2.14-12.86c1.43-11.43,3.57-25.73,6.43-41.45
		c7.86-48.6,20-115.77,30.71-182.23l-0.71,7.86c0,1.43-0.71,7.15-1.43,15.72c-1.43,2.14-2.14,8.58-2.14,19.3
		c-2.14,5.72-3.57,10-3.57,11.43v7.15c-2.14,10.01-2.86,16.44-3.57,20.01v10.72l1.43-3.57c2.14-12.86,4.28-20.01,4.28-20.01
		c0-5,2.14-16.44,5.71-35.73c2.14-15.72,4.28-32.87,7.86-50.02c1.43-12.15,2.86-22.15,2.86-29.3c2.14-7.86,3.57-17.87,4.28-32.16
		c0-2.14,0-3.57-0.71-5c-0.71,1.43-0.71,3.57-1.43,5c4.28-27.87,8.57-53.6,11.43-75.75c2.14-14.29,20-7.86,37.13-4.29
		C513.32,469.06,516.17,466.92,519.03,477.64z"/>
	<path d="M447.62,574.83v2.14c-2.14,18.58-3.57,28.59-5,31.44c0,0,0,1.43-1.43,2.86L447.62,574.83z"/>
	<polygon points="451.19,551.25 451.19,555.53 450.48,555.53 	"/>
</g>
<g id="C">
	<g>
		<path d="M365.29,535.27c-0.19,0.41-0.36,0.82-0.52,1.23C364.9,536.22,365.08,535.8,365.29,535.27z"/>
		<path d="M307.43,719.19c0.21-0.31-0.46,0.02-1.66,0.76C306.43,720.03,307.01,719.82,307.43,719.19z"/>
		<path d="M363.85,539.1c0.29-0.86,0.59-1.73,0.92-2.59c-0.12,0.26-0.21,0.45-0.21,0.45L363.85,539.1z"/>
		<path d="M424.55,737.77c-13.57,21.44-52.84,69.32-104.97,106.48h0.71l35.71-25.73l-35.71,28.59c-1.43,0-2.86,1.43-5,5
			c-3.57-2.14-30.71,22.87-44.28,26.44c-1.43,2.14-2.86,2.86-5,2.86c-2.14,0.71-3.57,1.43-5,2.14c0,0.71,0.71,1.43,2.14,2.86
			l-0.71,0.71c-0.71,1.43-2.86,0.71-7.14-1.43c-3.57,4.29-5.71,6.43-7.14,6.43c-1.43,2.14-2.86,2.86-3.57,2.14
			c-0.71,0.71-4.28,1.43-10,3.57c-0.71,0.71,0,1.43,1.43,2.14l-0.71,0.71c-5-0.71-7.86-0.71-8.57,0.71
			c-4.28,1.43-6.43,2.14-7.86,1.43l-5.71-2.86l0.71-1.43c-3.57,0.71-7.14,1.43-10.71,1.43l-0.71,0.71c0.71-0.71,0.71-1.43,0.71-2.14
			l0.71-2.14l2.14-3.57l0.71-0.71v-0.71l1.43-4.29c3.6-8.4,14.21-32.86,18.38-42.2c0.21-0.5,0.45-1.01,0.68-1.51
			c0.16-0.35,0.3-0.67,0.43-0.94c0.39-1.07,0.51-1.37,0.51-1.09c10-25.01,20-52.17,35.71-82.9c6.72-13.45,34.8-34.17,41.9-38.55
			c-3.75-0.48-10.37-11.54-9.76-20.05c12.14-30.73,20-59.31,33.56-86.47c-2.86,5-5.71,10.72-9.28,17.87l-0.42,1.06
			c-0.33,1.04-0.47,1.98-1,2.51l1-2.51c0.11-0.35,0.25-0.7,0.42-1.06l7.86-17.15l1.43-3.57c1.43-2.86,3.57-6.43,5-9.29
			c2.86-7.15,5.71-12.86,7.86-16.44c0-1.43,1.43-3.57,2.14-6.43c0.71-2.14,1.43-3.57,2.14-5c0.71-0.71,1.43-2.86,2.86-5.72
			l4.28-10.01c0.71,0,1.43-1.43,2.86-4.29c0.71-2.86,2.86-7.15,5.71-12.86l3.57-7.15c-0.25,0.74-0.48,1.35-0.7,1.89
			c0.39-0.87,0.83-1.74,1.41-2.6c10.71-3.57,20.71-5.72,29.28-4.29c17.85-4.29,24.99,58.6-18.57,115.77
			c40.7-40.02,105.69-106.48,39.28-159.36c-7.14-2.14-15.71-6.43-23.57-10.72c2.14-5.72,4.28-10.72,7.14-15.72
			c0.71-3.57,10.71-32.16,10.71-40.02c-5.71,12.15-15.71,37.88-22.85,52.88c-16.42-8.58-32.85-16.44-47.85-12.15
			C253.16,480.5,88.2,671.3,71.06,807.8c-7.86,64.32,17.85,116.49,99.98,132.92c11.43,2.14,5.71,20.72-1.43,35.73
			c6.43-12.15,13.57-26.44,17.14-33.59c5.71,1.43,12.85,2.14,19.28,2.14C349.57,956.44,437.4,717.76,424.55,737.77z M171.75,890.7
			c-15-16.44-17.85-45.02-12.14-76.47c-6.43,2.86-6.43,36.45-5,45.74l-2.14-7.86l0.71-27.87v-1.43c1.43-7.15,2.86-10.72,5-10.72
			c0.71-2.86,1.43-5,2.14-6.43v-0.71l-0.71-2.14v-1.43l2.86-5v-0.71c-2.14-1.43-3.57-2.86-3.57-4.29c0-0.71,0-0.71,0.71-0.71
			c1.43-2.86,2.86-4.29,4.28-4.29l2.86,0.71l0.71-0.71c0.71-0.71,0.71-0.71,0.71-1.43v-0.71l-1.43-2.14c1.43,0,2.14-0.71,2.86-0.71
			c0-0.71,0-1.43,0.71-2.14v-0.71l-2.14-0.71v-2.14c0-0.71,1.43-1.43,4.28-2.86c0-0.71,0.71-1.43,0.71-2.14v-0.71l-0.71-2.86
			l2.14-0.71l2.14-4.29c0-0.71,0.71-1.43,0.71-2.14c0.71-0.71,0.71-1.43,0.71-1.43v-0.71c0-1.43-0.71-2.14-1.43-2.14h-2.86
			c0-0.71,0-1.43-0.71-2.14c2.86-3.57,4.28-5.72,5.71-5.72h1.43v2.86c0,2.86-0.71,2.86-0.71,5c0-0.71,0.71-2.86,1.43-2.86
			c0.71-2.14,2.14-5,2.86-7.15l0.71-5.72c0.71-1.43,1.43-1.43,1.43-1.43c1.43-5.72,2.14-9.29,4.28-8.58
			c1.43-4.29,1.43-6.43,2.14-7.15v-0.71v-2.86c1.43-2.14,2.86-2.86,3.57-3.57c0-1.43,2.14-3.57,7.14-7.86c0-5,2.14-8.58,6.43-10.72
			c0.71-0.71,1.43-1.43,1.43-2.86c0,0,0-0.71-0.71-1.43c0.71-0.71,1.43-1.43,2.14-1.43h0.71c37.13-60.74,86.41-118.63,129.97-145.79
			c34.28-26.44-48.56,143.64-65.7,150.07c-4.28,6.43-34.99,28.59-34.99,29.3c2.14,3.57,13.57,20.72,11.43,28.59
			c-17.85,50.74-29.99,79.32-42.85,110.05C203.89,882.12,197.46,919.28,171.75,890.7z"/>
	</g>
</g>
<g id="TRAZO_SUP">
	<path d="M1511.16,508.69c-10.47,1.92-15.23,1.92-19.04,1.92c-5.71,0-8.57,0-12.38,0c-2.86,0-8.57,0-18.09,1.92l-18.09,2.87
		l-19.04,0.96l-18.09,2.87h-19.04l-20.95,1.92l-18.09,0.96l-18.09,0.96l-18.09,0.96l-20.95,3.83h-18.09l-19.04,0.96l-20,0.96
		l-18.09,1.92c-6.66-0.96-11.43,0.96-16.19,0.96c-7.62,0-13.33,0.96-20,2.87c-6.67-0.96-12.38,0-18.09,1.92
		c-4.76-0.96-9.52-0.96-12.38-0.96c-2.86-0.96-5.71-5.75-7.62-11.49c-2.86-4.79-3.81-13.41-4.76-21.07c1.9-7.66,0-13.41,2.86-19.16
		c3.81-6.71,7.62-9.58,14.28-8.62c3.81,0.96,10.47,0.96,15.23,0c3.81,1.92,9.52,2.87,17.14,2.87c4.76,0,8.57-0.96,15.23-0.96
		c6.67,0.96,11.43,1.92,19.04,2.87c4.76-1.92,9.52-1.92,17.14-1.92c6.67,0.96,12.38,0,19.04-0.96c6.67,0.96,11.43-0.96,19.04-0.96
		c5.71,0,13.33-1.92,20-2.87c5.71-0.96,14.28-2.87,19.04-4.79c8.57-0.96,15.23-1.92,20.95-4.79c8.57,0.96,15.23-3.83,24.76-7.66
		c8.57,0,13.33,0,20.95-3.83c4.76,0,12.38-0.96,17.14-2.87c2.86-1.92,7.62-5.75,13.33-6.71c4.76-0.96,10.47-2.87,15.23-4.79
		c3.81-2.87,9.52-4.79,13.33-7.66c4.76-0.96,11.43-4.79,16.19-7.66c4.76-3.83,12.38-5.75,18.09-9.58c-3.81,0-7.62,0.96-11.43,0.96
		c-3.81,0-8.57,0.96-12.38,0.96c-3.81,0-8.57,0.96-13.33,0.96c-4.76,0.96-9.52,0.96-14.28,1.92c-5.71,0-10.47,0-14.28-0.96
		c-5.71,1.92-10.47,1.92-17.14,1.92c-3.81,2.87-9.52,1.92-16.19,1.92c-4.76,1.92-9.52,0.96-16.19,1.92c-5.71,0-11.43,0-19.04,1.92
		c-4.76,0.96-11.43,0.96-16.19,1.92c-7.62,1.92-13.33,2.87-20,3.83c-7.62,0-12.38,0-19.04,0.96c-5.71,0-13.33,0-19.04,1.92
		c-8.57,1.92-16.19,2.87-21.9,2.87c-7.62,0.96-14.28,0.96-20.95,2.87c-6.67-0.96-14.28,0.96-20.95,1.92c-6.67,0-14.28,0-22.85,0.96
		c-7.62,0.96-13.33,1.92-20,2.87c-7.62,0.96-16.19,1.92-21.9,1.92c-7.62,1.92-15.23,1.92-23.8,2.87c-6.67,0-14.28,2.87-22.85,2.87
		c-6.67,0.96-13.33,1.92-20,1.92c-8.57,0-16.19,0.96-23.8,0.96c-7.62,0.96-16.19,2.87-23.8,4.79c-6.67,0-14.28-0.96-21.9,0.96
		c-7.62,0-14.28,1.92-22.85,2.87c-8.57,0-15.23,0.96-21.9,0c-7.62,1.92-16.19,0.96-22.85,2.87c-7.62,0.96-14.28,0-21.9,0.96
		c-9.52,0.96-16.19,0.96-21.9,1.92c-8.57,0.96-15.23,0.96-21.9,0.96c-9.52,0.96-15.23,0.96-23.8,0c-6.67,1.92-12.38,1.92-20,2.87
		c-7.62-0.96-15.23,0.96-20,0.96c-7.62-0.96-16.19-0.96-21.9-0.96c-6.67,0.96-12.38,0-20.95,0c-5.71,0.96-12.38,0.96-19.04,0.96
		c-6.67,0.96-11.43-0.96-18.09,0c-7.62,0-14.28-1.92-20.95-0.96c-4.76,0-12.38,0-17.14-0.96c-6.67,0-12.38,0-17.14-0.96
		c-4.76,0.96-10.47-0.96-17.14-1.92c-5.71,0.96-10.47,0-15.23-0.96c-5.71-1.92-10.47,0-14.28-2.87c-6.67,0-11.43,0.96-16.19-0.96
		c-4.76-0.96-8.57-1.92-13.33-2.87c-4.76-0.96-9.52-1.92-13.33-2.87c-3.81-0.96-7.62-1.92-11.43-2.87
		c-10.47-4.79-20-6.71-24.76-9.58c-3.81-2.87-5.71-6.71-5.71-11.5c0.95-3.83,0.95-10.54,3.81-21.07c3.81-6.71,3.81-11.49,7.62-18.2
		c2.86-4.79,4.76-9.58,9.52-15.33c3.81-2.87,7.62-5.75,11.43-7.66c5.71-1.92,9.52-3.83,18.09-4.79c9.52,0,18.09,3.83,26.66,3.83
		l8.57,0.96c3.81,0,7.62,0.96,12.38,0.96c3.81,0.96,11.43,0.96,16.19,0.96c4.76,0,12.38,1.92,20,1.92
		c7.62,0.96,13.33,1.92,22.85,1.92c4.76-0.96,15.23,0.96,23.8,0c6.66,0,14.28,3.83,24.76,3.83c8.57-0.96,17.14-2.87,26.66,0.96
		c6.67-1.92,16.19-2.87,24.76,0c4.76-2.87,12.38,1.92,22.85,0.96c5.71-0.96,13.33,0,20.95,0c6.67,0.96,15.23,0.96,20.95,0
		c4.76,0.96,9.52,1.92,15.23,0.96c4.76,0.96,9.52,1.92,13.33,1.92l7.62,0.96l-1.9,0.96c-3.81-0.96-8.57,0.96-15.23,0.96
		c-5.71,1.92-16.19,2.87-24.76,0.96c-9.52-0.96-18.09-0.96-29.52,0c-12.38,0.96-20.95,0.96-28.56,0.96
		c-7.62,0.96-18.09,0-24.76-0.96c-7.62,2.87-12.38,2.87-15.23,2.87l-1.9,0.96c7.62,0.96,13.33,1.92,19.04,1.92
		c5.71,2.87,13.33,0.96,20,3.83c5.71,0,12.38,0.96,20,0c5.71,0.96,11.43,1.92,18.09,1.92c7.62,1.92,13.33,2.87,20,1.92
		c4.76,1.92,11.43,1.92,18.09,0.96c6.67,0,11.43,3.83,19.04,3.83c7.62-0.96,12.38-0.96,20,0.96c5.71,0,11.43,0.96,17.14-0.96
		c7.62,0.96,12.38,0.96,20.95,1.92c4.76,0,11.43,0,18.09,0c7.62,0,12.38,0.96,17.14,0c7.62,0.96,13.33,0.96,20,0
		c7.62,0,13.33,0,19.04,1.92c6.67-0.96,12.38-0.96,19.04-0.96c6.67,0.96,10.47,0,17.14-0.96c7.62,0,13.33,0,20-0.96
		c6.67,0.96,12.38,1.92,20,0.96c5.71,0.96,10.47-1.92,17.14-0.96c6.67,0,12.38-0.96,19.04-0.96c6.67-0.96,13.33-0.96,20-0.96
		c6.67,0.96,9.52-0.96,17.14-0.96c6.67-0.96,12.38-0.96,19.04,0c7.62-0.96,11.43-0.96,17.14-2.87c7.62-1.92,14.28,0.96,20.95-0.96
		c6.67-0.96,10.47-0.96,17.14-2.87c6.67,0.96,12.38,0,19.04,0c5.71-0.96,12.38-0.96,18.09-3.83c6.67-0.96,11.43-0.96,19.04-1.92
		c5.71-0.96,12.38-0.96,20-0.96c4.76-2.87,11.43-0.96,19.04-1.92c6.67-2.87,10.47-1.92,17.14-4.79c6.66,0,12.38-0.96,19.04-0.96
		c5.71,0,11.43-2.87,18.09-1.92c6.67-1.92,13.33-2.87,18.09-3.83c7.62-0.96,13.33-1.92,19.04-3.83c7.62-0.96,12.38-1.92,19.04-2.87
		c6.67,0,12.38-0.96,19.04-0.96c6.67-0.96,12.38-4.79,19.04-5.75c5.71-0.96,13.33,0,19.04-0.96c6.67-1.92,10.47-3.83,18.09-3.83
		c6.67-2.87,12.38-2.87,19.04-2.87c7.62-2.87,11.43-2.87,19.04-5.75c6.67,0.96,12.38-1.92,20-3.83c0.95,10.54,3.81,17.24,3.81,26.82
		c0,6.71,0,13.41-0.95,18.2c0,5.75-0.95,9.58-2.86,13.41c-1.9,3.83-4.76,7.66-8.57,10.54c-3.81,3.83-8.57,3.83-14.28,7.66
		c-4.76,1.92-11.43,4.79-17.14,6.71c-6.66,5.75-13.33,8.62-22.85,7.66c-4.76,3.83-12.38,6.71-17.14,8.62
		c-6.67,1.92-12.38,4.79-19.04,7.66c-3.81,1.92-12.38,3.83-16.19,4.79c-6.67,3.83-12.38,6.71-18.09,8.62
		c-6.67,4.79-11.43,6.71-18.09,9.58c-6.66,3.83-11.43,4.79-17.14,9.58h20l20,0.96l18.09,2.87l21.9-0.96l17.14,0.96l21.9,1.92h17.14
		h20.95l20,1.92l19.99,0.96h19.04l20.95,1.92l18.09,0.96l20-0.96l-19.04,1.92l-20.95,1.92h-19.04l-20.95,1.92l-19.04-0.96
		l-20.95,1.92l-20-0.96l-18.09,2.87L1511.16,508.69z"/>
</g>
<g id="s">
	<path d="M1328.81,284.12c11.78,1.28,35.02-6.07,28.48-11.81c-1.64-1.6-2.95-2.55-4.58-3.83c-8.18-6.71-16.36-12.77-20.95-19.48
		c-2.29-3.19-6.22-7.34-6.87-10.86c-1.64-11.81,14.07-46.62,31.09-48.85c4.91-1.28,14.4-1.92,18.66,4.79
		c0.33-1.6,0.65-2.87,0.98-3.83c2.29-6.39,9.49-1.6,13.75-0.64c16.04,3.83-11.78,17.24-19.64,45.02
		c-2.29-0.32-0.65-16.28,1.64-27.14c-3.27-0.96-7.86,0.32-12.11,5.43c-8.84,10.22-12.44,19.48-9.16,28.74
		c0.98,2.24,1.96,4.47,3.6,6.71c0.98,1.28,2.29,2.87,3.6,4.15c3.93,4.15,9.16,8.62,15.71,13.41c7.2,5.11,7.86,14.69,6.87,19.16
		c-1.64,7.02-11.78,10.86-22.26,14.37v-0.32h0.33l0.33-0.64h-0.33v-0.32c0-0.32-0.33-0.64,0-0.64h0.33v0.64h0.33
		c0.33-0.64,0.33-0.96,0-0.96v-0.32h0.33v-0.32c0.33,0,0.33,0,0-0.32c-0.33,0.32-0.65,0.64-1.31,0.64c-0.33,0-0.33,0.32-0.65,0.32
		s-0.98,0.32-1.64,0.64c-0.33-0.32-0.65-0.32-0.98-0.32l-0.65,0.64c0,0.32-0.65,0.32-0.98,0.32c-0.33,0.32-0.65,0.64-0.98,0.32
		l-0.33,0.32h-0.33c-0.98,0.32-1.64,0.64-1.64,0.32l-0.33,0.32h-0.98l-0.33,0.32c-0.33,0-0.98,0.32-0.98,0.64
		c-0.33-0.32-0.65,0.32-1.31,0.64l-0.33-0.32c-0.65,0.32-1.64,0.64-3.27,0.64v-0.32c0,0-0.33,0.32-0.98,0.64h-0.98
		c0,0-0.33,0.32-0.65,0.32v-0.32l-0.33,0.32c-0.33,0.32-0.65,0.32-0.98,0.32c-0.33,0-5.56,0.96-5.56,0.96h-6.22l-0.33-0.32
		c-0.33,0.32-0.65,0.32-0.98,0c-0.65,0.32-1.31,0.32-1.31,0c-0.65,0.32-0.98,0-1.31,0s-0.98,0-1.64-0.32c0,0.32-0.33,0.32-0.98,0
		h-1.31c-6.22-3.83-8.18-11.5-5.24-19.16c2.95-6.71,13.09-14.37,19.64-16.28C1318.66,278.7,1321.28,283.49,1328.81,284.12z
		 M1319.97,303.92l0.33,0.32c-0.33-0.32-0.65-0.32-0.65-0.32H1319.97z M1320.3,304.24c0.33-0.32,0.65,0,1.64,0.32
		c0.33-0.32,0.33-0.32,0.65-0.32l-0.33,0.64h-0.33C1321.28,304.56,1320.63,304.24,1320.3,304.24z M1326.52,305.52
		c0.33-0.32,0.65-0.32,1.31,0c0.33,0,0.33,0,0.33-0.32c0.33,0,0.33,0,0.65,0.32h0.65c-0.33,0-0.33,0-0.33-0.32h0.33
		c0.33,0,0.65-0.32,0.65-0.32c0.33,0,0.98,0.32,1.31,0h0.33l0.33,0.64l0.65-0.64h1.31v0.32h0.65v0.32h-1.31v0.32h-7.2
		L1326.52,305.52z M1335.68,305.52v-0.32v-0.32h-0.33v-0.32c0,0-0.33,0-0.65,0.64c0,0,0.33,0.32,0.65,0.32H1335.68z M1336.01,304.88
		h0.33l0.33-0.32h-0.33C1336.01,304.56,1336.01,304.56,1336.01,304.88z M1340.26,285.08l-0.33-0.32l0.33-0.32v-0.32h-0.65v0.64
		c-0.33-0.32-0.65-0.32-0.98-0.32c0,0.32,0,0.32,0.33,0.64h-0.33l-0.65-0.32l-0.33,0.32c-0.33,0-0.65,0-1.31,0.32h0.33
		c0.65,0.32,0.98,0.32,1.31,0l1.31,0.32c0.65-0.32,0.65-0.64,0.65-0.64H1340.26z M1342.56,283.8c0,0-0.33,0.32-0.65,0.32
		s-0.33-0.32-0.33-0.32h-0.65v0.64h-0.33v0.64c0.33,0,0.33-0.32,0.33-0.32c0.65,0.32,0.98,0.32,1.31,0
		c0.65-0.32,0.98-0.32,1.64-0.64h-0.33C1343.54,284.12,1343.21,284.12,1342.56,283.8z M1347.79,196.63c2.29-1.6,3.27-2.87,2.95-3.19
		h-0.65c-0.65,0-0.98,0-1.31-0.32v0.32l-0.65,0.32v0.32h-0.65c-0.33,0-0.33,0.32-0.33,0.64c0,0,0.33,0.32,0.65,0.32l-0.33,0.64
		h-0.33c-0.65,1.28-1.64,2.55-2.95,3.51l0.33,0.32h0.65l0.33-0.32C1346.81,198.23,1347.47,197.27,1347.79,196.63z M1348.45,282.53
		c-0.33-0.32-0.98,0-1.31,0.32l-0.33,0.32c-0.33,0-0.65,0-0.98,0.32l-0.33-0.32c0.33,0,0.33,0,0.33-0.32
		c-0.33,0.32-0.65,0.32-0.98,0.32c0,0.32-0.33,0.64-0.65,0.64v0.32l0.65,0.32l0.98,0.32v-0.32h-0.98v-0.32l0.33-0.32
		c0,0,0.33,0.32,0.33,0c0.33,0,0.33,0,0.65-0.32c0.33,0,0.65,0,1.31-0.32c0.33,0,0.65-0.32,1.31-0.64H1348.45z M1345.83,302.96
		h-0.33v0.32L1345.83,302.96z M1347.14,302.64c3.27-0.96,6.87-2.24,10.47-3.19l-0.33-0.32h-0.98c-0.65,0.32-0.98,0.64-0.98,0.32
		c-0.65,0.64-0.98,0.64-1.64,0.64v-0.64c0,0,0.65,0,1.64-0.32v-0.32c0.33-0.32,0.33-0.32,0-0.32h-0.65v0.64l-0.65-0.32l-0.33,0.32
		c0-0.32-0.33-0.32-0.65,0v0.32h-1.31c0,0.32-0.33,0.32-0.65,0.64c-0.33-0.32-0.65-0.32-0.98,0l-0.33,0.32l0.33,0.32
		c0.33-0.32,0.65-0.32,0.98-0.32c0,0,0.33,0,1.31-0.32c0.33,0,0.65-0.32,0.65-0.32l0.33,0.32l-0.98,0.64h-0.65
		c-0.33,0-0.65,0.32-0.98,0.32l-0.33,0.32h-0.98v0.32h-0.65c-0.33,0-0.65,0.32-0.65,0.32c-0.33,0-0.98,0-1.31,0.32
		c-0.33,0-0.65,0-0.98,0.32h0.33v0.32C1346.48,302.96,1346.81,302.64,1347.14,302.64z M1349.76,300.41h-0.33
		c-0.33,0.32-0.98,0.32-1.31,0c-0.65,0.64-0.65,0.64-0.98,0.32c-0.33,0.32-0.65,0.64-0.98,0.64v0.32c0.65,0,0.98-0.32,0.98-0.32
		c0.33,0,0.33-0.32,0.65-0.32l0.33-0.32c0.33,0.32,0.65,0.32,1.31,0.32L1349.76,300.41z M1357.94,298.49c-0.33,0-0.65,0.32-0.98,0
		c-0.33,0-0.65,0-1.31,0.32v-0.32h0.33v-0.32c0.65,0.32,0.65,0,0.98,0h0.33v0.32C1357.61,298.17,1357.61,298.17,1357.94,298.49z
		 M1360.23,296.9h1.31v-0.32h0.65c0.33-0.32,0.65-0.64,0.98-0.64c0,0,0.33,0,0.65,0.32v-0.32h0.33l0.33-0.32c0,0,0.33,0,0.65-0.32
		v0.32l0.33-0.32v-0.64l-0.65,0.32c0-0.32-0.33,0-0.98,0.32c0,0-0.33,0-0.98,0.32c0,0-0.33,0-0.65,0.32h-0.65
		c-0.33,0-0.33,0-0.98,0.64L1360.23,296.9z M1366.45,294.34c0,0,0,0.32-0.33,0.96c0.33-0.32,0.33-0.32,0.65-0.32l0.98-0.64
		c0-0.32,0.33-0.32,0.33-0.32v-0.32l-0.98,0.64H1366.45z"/>
</g>
<g id="Layer_13">
	<path d="M1303.75,268.48c0-1.28,0-2.55,0.33-3.83c4.58-17.56,9.16-35.44,14.07-53c1.96-7.98,0-13.09-7.2-13.09
		c-8.51-0.32-17.02,0-25.53-0.32c-6.22-0.32-10.8,2.55-14.07,7.98c-17.02,24.59-43.2,59.71-29.13,85.57
		c3.93,7.02,11.46,9.9,20.29,8.62c8.84-1.6,11.13-9.26,14.07-15.97c1.64-3.51,2.62-6.71,3.93-10.54c1.64,7.98,1.31,15.97,4.58,22.03
		c1.96,3.83,8.18,6.07,13.42,7.02c1.64,0.32,6.22-6.07,8.51-9.58c2.95-4.47,4.91-9.58,7.53-15.33l25.53-52.05
		C1335.5,231.76,1308.01,269.76,1303.75,268.48z M1262.84,222.5c0,0,0.33-0.64,0.65-1.6c0.33,0.32,0.65,0,0.98-0.96v-0.32
		c0-0.32,0-0.32,0-0.32v-0.32c0.65-0.32,0.98-0.64,1.31-0.96l-0.33-0.32l0.33-0.32v-0.32v-0.64c0.33-0.32,0.65-0.32,0.65-0.64v-0.32
		v-0.32c0.65-0.64,0.98-0.96,1.64-0.96l-0.33-0.64l0.33-0.32c0.65,0,0.98,0,0.98-0.32v-0.64c0,0,0.33-0.32,1.31-0.96
		c0-0.64,0.33-0.96,0.65-0.96c0.33-0.64,0.65-0.96,0.98-0.96c0-0.32-0.33-0.32-0.65-0.64v-0.32c0-0.32,0.33-0.32,1.64-0.32
		c0.33-1.28,0.65-1.92,0.65-1.92c0.33-0.64,0.65-0.64,0.98-0.64c0-0.32,0.33-0.96,1.64-1.6v-0.32c0,0,0,0-0.65,0l0.33-0.64
		c0.98,0,1.64-0.32,1.64-0.64c0.65-0.64,1.31-1.28,1.64-1.28l1.31,0.32v0.64c-0.33,0-0.65,0.32-0.65,0.64
		c-0.65,0.32-0.98,0.64-0.98,0.96c-0.33,0-0.33-0.32-0.65-0.32v-0.32l0.65-0.64c0,0,0,0-0.33,0c-0.65,0.64-1.31,1.28-1.31,1.6
		c-0.65,0.32-1.31,0.96-1.64,1.6l0.65,0.96h-0.33h-0.65c-0.65,0.32-0.98,0.96-0.98,1.28c-0.65,0.96-1.31,1.6-1.96,1.92
		c-0.65,0.96-1.31,1.92-1.31,1.92c-0.33,0.96-0.65,1.28-0.98,1.28c-0.33,0.64-0.65,0.96-0.65,0.96c-0.33,0.64-0.65,0.96-0.65,1.28
		l-0.98,1.6c-0.33,0.64-0.65,0.96-0.98,0.96c0,0.64-0.65,1.28-1.31,2.24c0,0.32,0,0.32,0,0.32c-0.65,0.96-0.98,1.28-0.98,1.6v0.32
		c0,0.32,0,0.32-0.65,0.32c-0.33,0.64-0.65,0.64-0.98,0.64h-0.33L1262.84,222.5z M1259.24,230.48c-0.33,0-0.33,0.32-0.65,0.64
		l-0.33,1.28c0,0.32-0.33,0.32-0.33,0.32c0,0.32-0.33,0.64-0.98,0.96v0.32v0.32v0.64l-0.65,0.64c0,0.32,0,0.32,0.33,0.32v0.64
		c-0.65,0-0.98,0.32-1.64,1.6l-0.33-0.32l-0.33-0.32v-0.32l0.33-0.64c0,0,0-0.32,0-0.64l0.33-1.28c0-0.32,0.65-0.64,1.64-1.92
		c0,0,0,0-0.33,0v-0.32c0.65-0.64,1.31-1.28,1.96-1.28v-0.64c0.33,0,0.33,0,0.33-0.32l-0.33-0.32l0.33-1.28c0,0,0-0.32,0.33-0.32
		h0.33l-0.33,1.6l0.65,0.32L1259.24,230.48z M1260.22,227.93c0,0.32,0,0.64-0.33,0.96h-0.33c0-0.32,0-0.64-0.33-0.96
		c0.65-0.64,0.98-0.96,0.98-0.96h0.33L1260.22,227.93z M1292.95,224.41l-0.65,0.64v0.96c0,0,0,0.32,0.33,0.64l-0.33,0.64l0.33,0.32
		c0,0-0.33,0.32-0.65,0.64c0,0.32-0.33,1.28-0.98,3.19c0,0,0,0.32,0,0.96c-0.33,0.32-0.65,0.96-0.65,1.92c0,0-0.33,0.32-0.65,0.96
		v0.32c0,0.32-0.33,0.96-0.33,1.92c-0.33,0-0.33,0.32-0.65,1.28c-0.33,0-0.33,0.32-0.33,0.96c-0.33,0-0.33,0.32-0.33,0.96v0.32v0.32
		h-0.33v0.32v0.32c-0.65,0-0.98,0.64-0.98,1.92c-0.33,0-0.65,0.32-0.98,0.64c0,0.96,0,1.92-0.33,2.23h0.33
		c0-0.32,0.33-0.64,0.65-0.96c0-0.32,0-0.32-0.33-0.32c0.33,0,0.65-0.32,0.98-0.96c0,0,0-0.32,0-0.64l0.98-0.64
		c0-0.32,0-0.64,0-0.96c0-0.32,0.33-0.64,0.98-0.96c0-0.64,0.33-0.96,0.33-1.28c0,0,0,0-0.33,0v-0.96c0.33,0,0.65-0.64,0.65-1.28
		c0.33-0.96,0.98-1.28,1.31-1.28l-0.33-0.64h0.33h0.33c0,0.32,0,0.32,0.33,0.32l0.33,0.32c-0.33,0.32-0.65,0.96-0.65,1.6
		c-0.33,0-0.33,0.64-0.33,1.6c0,0-0.33,0-0.33,0.32v0.96h-0.33c-0.33,0-0.33,0.64-0.65,1.28c0,0-0.33,0.32-0.65,1.28
		c0,0-0.33,0.32-0.33,0.96c-0.33,0-0.33,0.32-0.33,0.96c-0.33,0.32-0.33,0.96-0.65,1.6c0,0-0.33,0.32-0.65,1.28
		c-0.33,0-0.65,0.64-0.65,1.28c0,0.32-0.33,0.64-0.65,1.28c-0.33,0.32-0.33,0.32-0.33,0.64c0,0.32-0.33,0.96-0.65,1.28
		c0,0.32-0.33,0.64-0.65,1.28l-0.33,1.6c-0.65,0-0.98,0.32-0.98,0.96c0,0-0.33,0.32-0.33,0.64c0,0.32,0,0.64-0.33,0.64h-0.33
		c-0.65,0.64-0.98,1.28-0.98,1.28v0.32c0,0-0.33,0.32-0.65,0.32v-0.32h-0.33l-0.33,0.32v0.32c0,0,0.33,0,0.65,0v0.64
		c-0.33,0-0.65,0.32-0.65,0.96c0,0-0.33,0-0.98,0.32c0,0.64,0,0.96,0,0.96c-0.33,0-0.33,0-0.65,0.32h-0.33v-0.32l0.33-0.64h-0.65
		c0,0.32-0.33,0.32-0.33,0.64c-0.33,0.32-0.33,0.64-0.65,0.96h0.33v0.64c0,0.64-0.33,0.96-0.98,1.28l-0.33-0.32c0,0,0,0,0,0.32v0.32
		c-0.65,0.64-0.98,0.96-0.98,1.28h-0.33c-3.27,5.11-7.53,9.58-12.76,14.05c-1.31-15.97,20.62-57.48,34.69-64.18
		c-0.98,2.24-2.29,4.47-3.27,6.71L1292.95,224.41z"/>
	<path d="M1284.44,245.81c0.33-0.96,0.65-1.92,0.98-2.87c0,0.32,0,0.64,0,0.96C1285.1,244.53,1284.77,245.49,1284.44,245.81
		L1284.44,245.81z"/>
	<path d="M1286.08,241.02L1286.08,241.02c0,0,0,0,0,0.32V241.02z"/>
	<path d="M1286.4,239.74c0.98-1.92,1.64-3.83,2.29-5.75c-0.33,1.6-0.65,2.55-0.98,3.19C1287.06,238.46,1286.73,239.42,1286.4,239.74
		L1286.4,239.74z"/>
	<path d="M1289.02,233.35c0-0.32,0-0.64,0.33-0.64C1289.02,233.04,1289.02,233.35,1289.02,233.35L1289.02,233.35z"/>
	<path d="M1289.35,232.08c0.33-0.64,0.65-1.28,0.98-2.24v0.32l-0.65,0.96C1289.68,231.76,1289.68,232.08,1289.35,232.08
		L1289.35,232.08z"/>
	<path d="M1291.64,226.01l0.33,0.64c-0.33,0-0.33,0.32-0.65,0.32C1291.64,226.65,1291.64,226.33,1291.64,226.01z"/>
</g>
<g id="h">
	<path d="M1215.62,114.89c1.96,0.96,2.29,5.43,1.64,8.3c-0.65,4.15-4.26,16.92-8.51,32.25v-1.6c-0.33,0.32-0.65,0.96-0.65,0.96
		v-0.96c0.65-2.55,0.98-4.15,1.31-4.15l0.65-0.32v-1.92c0-2.24,0.98-6.07,2.62-12.13c0.65-2.87,0.98-4.47,1.31-5.11
		c0.33-0.64,0.65-2.24,0.98-4.79c0.33,0,0.33,0,0.33-0.32l0.33-3.19l-0.65,0.32c-0.65,0.96-0.98,2.24-1.31,4.15l-0.65,1.6v2.87
		c0,0.64-0.33,0.96-0.65,0.96v1.28l0.33,0.64c-0.98,2.55-1.64,3.51-1.96,3.83c0,1.28-0.33,2.55-0.98,4.15v1.28
		c0-0.32,0.33,0,0.33,0.32c-0.33,0.64-0.65,1.6-0.98,3.51l-0.33,0.32c-0.33,0.32-0.65,1.28-1.64,3.51c0,0.64,0,1.28,0.33,1.6
		c-0.65,1.92-0.98,2.87-1.31,2.87c-0.98,1.92-1.31,2.87-1.31,3.19l0.33,2.24l-0.33,0.96v3.51l-0.33,2.24
		c-0.65,0.96-0.98,1.92-1.31,2.55c0,0-0.33,1.28-1.31,3.19v1.92c0,0.64-0.33,1.92-0.65,4.15c-0.33,0.32-0.65,0.96-0.65,1.28
		l-2.62,12.13l2.62-8.3c-5.89,21.71-11.13,41.83-12.11,47.58c9.82-13.09,18.98-24.59,28.48-38c6.55-9.58,8.18-8.62,20.95-7.34
		c2.29,1.92,3.93,6.39,3.27,9.26c-0.65,4.15-1.64,8.62-2.62,12.77v0.96c-0.98,4.47-1.96,8.94-3.27,13.41v0.32
		c-0.65,3.19-1.64,6.39-2.95,12.77c-1.64,5.75-3.27,18.2-3.6,24.59c12.11-8.62,34.37-31.61,34.69-31.93
		c-10.47,21.71-26.18,39.91-32.73,53.32h-0.33v-0.32c0-0.32,0.33-0.64,0.98-0.96l-0.33-0.32c0.65-0.96,0.65-1.6,0.65-1.92
		c0.65,0,0.98-0.96,1.31-2.24l-0.33-0.64v0.64l-1.96,3.19c-0.33,0.96-0.98,1.6-1.31,1.92c-0.33,1.28-0.65,1.92-0.98,1.92
		c-0.33,1.28-0.65,2.24-0.98,2.24c0,0.64-0.33,0.96-0.98,1.28c0,0.32,0,0.96-0.65,1.6c-0.98,1.28-1.31,2.24-1.31,2.87
		c-1.64,3.19-2.95,5.11-3.6,5.75l0.33,0.64h0.33c0.65-1.28,1.31-2.24,1.64-2.87c0.98-1.28,1.96-2.24,2.62-2.87
		c-3.6,7.02-3.93,12.13-6.87,11.81c-4.91-0.64-20.62,0.96-20.95-2.87c-0.33-0.64-0.33-1.6-0.33-2.55
		c4.91-20.12,10.47-57.16,12.44-82.06c-3.93,7.02-8.51,14.05-11.78,21.07c-4.58,9.58-9.16,18.84-12.44,28.42
		c0-0.32,0-0.64-0.33-0.64c0.65-0.64,0.65-0.64,0.65-0.96l-0.65-0.32l0.65-0.64c0.33-0.32,0.33-0.64,0-0.96h-0.65
		c-0.33,0.64-0.33,1.28-0.33,1.92c-0.33,1.28-0.65,1.92-0.98,2.55c0,0.64-0.33,1.6-0.98,2.87c0,0.32-0.33,0.96-0.65,1.6
		c0.33,0.32,0.33,0.96-0.33,2.24v0.96c-0.33,0.32-0.65,0.32-0.65,0.32v1.28c-0.33,0-0.65,0.96-0.65,2.24
		c-0.33,0.32-0.33,0.96,0,1.92c0,0.32,0,0.64-0.65,1.6l0.65,0.64l-0.33,0.64c-0.33,0-0.33-0.32-0.65-0.32
		c-0.33,1.28-0.65,2.24-0.98,2.55c-0.33,0.96-0.33,1.6-0.33,2.24c-0.33,0.32-0.33,0.96-0.33,1.92h0.33l0.65,0.64l-0.98,0.96h-0.33
		v-0.64l-0.33,0.32c0,0.32,0,0.96,0.33,1.28c-0.33,0-0.33,0.96-0.65,2.87c0,1.6-1.96,2.24-2.95,2.87
		c-3.6,1.92-18.66,1.28-18.98-2.24c-0.33-5.43,4.91-16.92,4.25-22.99c0-0.96,0.33-2.24,0.33-3.83
		c1.96-21.71,14.4-74.08,22.26-106.01c3.6-14.69,6.87-36.72,11.13-49.81C1195.66,105.31,1211.7,113.3,1215.62,114.89z"/>
	<path d="M1182.89,276.46c-0.65,3.51-0.98,7.02-0.98,10.86c0,1.92-1.31,4.47-3.27,6.71v-0.96c0.65-1.92,0.65-3.19,0.65-3.51
		c0.33,0,0.65-0.96,0.65-2.24c0,0,0.33-0.64,0.33-1.92c0.33-0.32,0.33-0.64,0.33-1.92c0.33-0.64,0.98-1.92,1.31-4.47
		c0.33-0.32,0.33-0.96,0-1.28C1181.91,277.74,1182.24,277.1,1182.89,276.46z"/>
	<path d="M1183.55,273.59c-0.33,0.96-0.65,1.92-0.65,2.87c0-0.64,0-1.6,0.33-2.24C1183.22,274.23,1183.22,273.91,1183.55,273.59z"/>
	<path d="M1183.55,273.59c0-0.32,0-0.64,0.33-0.96C1183.55,272.95,1183.55,273.59,1183.55,273.59z"/>
	<path d="M1184.2,271.03l-0.33-0.32l0.33-0.64h0.33C1184.2,270.39,1184.2,270.71,1184.2,271.03z"/>
	<path d="M1184.86,268.16v-0.32l0.33-0.64C1185.19,267.52,1185.19,267.84,1184.86,268.16z"/>
	<path d="M1200.57,184.18c0.33-0.96,0.65-2.24,0.98-3.19v0.32L1200.57,184.18z"/>
	<path d="M1207.77,156.08l0.33,0.64c-1.31,5.43-2.62,11.18-4.25,16.6l0.33-1.28v-0.96c0-1.6,0.33-2.55,0.98-3.51
		c0.33-3.19,0.65-5.43,1.31-6.39C1206.46,160.87,1207.11,158.96,1207.77,156.08z"/>
	<path d="M1208.42,156.72h-0.33c0-0.32,0.33-0.32,0.33-0.64V156.72z"/>
	<path d="M1209.73,150.97l-0.65,0.32l-0.33,2.24v0.32c0.33,0,0.65-0.64,0.98-2.24V150.97z"/>
	<path d="M1226.1,291.79l-0.33-1.28c0.33-0.64,0.98-1.92,2.29-3.19c0-1.28,0.65-2.55,1.96-3.83v0.32
		C1228.39,286.68,1227.08,289.23,1226.1,291.79z"/>
	<path d="M1235.26,207.49c0.98-2.24,2.62-9.26,3.27-11.81c-0.33-0.32-1.31,0-1.64,0.32c0,0.32-1.31,9.9-1.96,11.5
		c-0.33,1.28-0.33,2.55-0.33,2.24C1234.93,208.45,1235.26,208.13,1235.26,207.49z"/>
	<path d="M1235.59,212.28c0.33-0.96,0.98-4.15,1.31-5.11c0-0.32-0.65,0-0.65,0s-0.33,0.32-0.33,0.96c-0.33,0.96-0.33,3.51-0.33,3.83
		c-0.33,0.64-0.33,0.96-0.33,0.96C1235.59,212.6,1235.59,212.28,1235.59,212.28z"/>
</g>
<g id="c">
	<path d="M1114.73,293.7c-10.15-7.02-15.38-15.65-17.35-25.22c-4.58-20.76,6.22-45.02,17.35-63.54c1.96-3.51,6.55-10.22,9.82-12.13
		c6.87-3.51,24.22-3.51,31.09,4.79c3.93,4.15,4.91,7.66,6.22,12.77c1.31,7.34-6.22,20.12-22.58,28.1c0.65-1.28,1.64-2.24,2.29-3.19
		v0.32l0.33-0.32h0.33c0,0.32,0.33,0.32,0.33,0.32v0.64l0.33-0.32v-0.32l0.33-0.32c0-0.32,0.33-0.64,0.33-0.64
		c0.65-0.64,0.65-1.28,0.98-1.6c-0.33-0.32,0-1.28,0.65-1.92v0.32c0.33-0.32,0.33-0.64,0.33-0.64c0-0.32-0.33-0.64-0.33-0.64v-0.32
		l0.65-0.32l0.65-0.64c0,0,0-0.32,0.33-0.32v-0.96h0.33v-0.32c0.33-0.96,0.65-1.28,0.65-1.28c0.33-0.64,0.65-0.96,0.65-1.28h-0.33
		v0.32l-0.33,0.32h-0.33c0,0.32-0.33,0.32,0,0.64c-0.33,0.32-0.33,0.32-0.33,0.64h-0.33v-0.32c2.95-7.02,2.95-13.09,0.33-22.03
		c-12.11,8.62-18.33,22.35-24.55,35.44c-2.62,9.26-7.86,34.49,6.22,36.4l0.33-0.32c0,0.32-0.33,0.64-0.98,0.96v0.32h0.98v-0.64h0.98
		c0.33-0.32,0.33-0.32,0.33-0.64s0.65-0.32,1.31-0.32c0.65-0.96,1.31-1.28,1.96-1.92h0.33v0.32h0.33c0.33,0,0.98-0.32,1.64-0.96
		c0,0,0.33-0.64,1.31-1.6c0-0.64,0.33-0.96,0.33-0.96h0.65v0.32h0.33c0,0,0.33,0,0.65-0.64h0.33v-0.64
		c0.33-0.32,0.65-0.64,1.31-0.96h0.33v-0.32l0.33-0.32c0.33,0,0.98-0.32,1.64-0.64v-0.64c8.84-6.07,18.98-15.01,30.44-29.38
		c0.33-0.32,0.65,0,1.31-0.32c3.27,11.81-38.29,55.88-47.46,60.35C1123.9,298.81,1119.64,297.53,1114.73,293.7z"/>
	<path d="M1123.24,201.1l-0.65,0.32h-0.33v0.64c0,0-0.33,0.32-0.65,0.32l-0.65,0.64c0.33,0.32,0,0.64-0.98,0.96
		c-0.33,0.64-0.65,1.6-1.31,2.24l-0.33-0.32h-0.33c-0.33,0.32-0.65,0.96-0.98,1.6c0,0-0.33,0.64-0.65,1.92c0,0.64,0,0.96-0.33,0.96
		h-0.98c0,0-0.33,0.32-0.33,0.64l-0.33,0.32v0.64c0,0.32-0.33,0.64-0.98,1.28v0.64c-0.33,0-0.65,0.32-1.64,1.28
		c0.33,0.64,0,1.6-0.65,2.87h-0.65v0.32c0,0.64,0,0.64-0.33,1.28c0,0.32,0,0.64-0.33,1.28c0,0-0.33,0.32-0.98,0.64
		c0,0,0,0.32-0.33,0.32v0.64c0,0.96-0.33,1.6,0,2.24c0,0.32,0,0.64-0.33,0.64h-0.65c-0.33,0-0.33,0-0.33,0.32
		c0.33,0,0.33,0.32,0.65,0.64c-0.33,0-0.33,0-0.33,0.32v0.32c0.33-0.32,0.65-0.64,1.31-0.96c0,0,0-0.32,0.65-0.96l-0.33-0.64v-0.32
		c0-0.32,0-0.64,0.33-0.96c0.33-0.32,0.65-1.28,1.31-1.92v-0.32c0.33,0.32,0.33,0.64,0.33,0.64h0.33c0-0.32,0.33-0.32,0.33-0.96
		h-0.65c0-0.32,0.33-1.6,1.64-3.51c0-0.32,0.33-0.64,0.33-1.28c0.65-0.64,0.98-1.28,0.98-1.92l1.31-0.96c0-0.32,0.33-0.64,0.65-1.28
		h-0.33v-0.32c0,0,0-0.32,0.65-0.64h0.65c-0.33-0.32,0-1.28,0.98-2.24c0.33-0.32,0.33-0.64,0.65-0.96c0-0.32,0.33-0.64,0.65-0.96
		c0-0.32,0.33-0.96,0.98-1.6c0.33-0.64,0.98-1.28,1.64-1.92v-0.32h0.65c-0.33-0.32,0-0.96,0.33-0.96L1123.24,201.1z"/>
	<path d="M1119.97,208.13c-0.33,0.96-0.65,1.6-1.31,1.92c0.33,0.64,0,0.96-0.98,0.96v1.92h-0.65c-0.33,0.64-0.65,1.6-0.65,2.24
		l-0.98,0.96l0.33,0.32l0.33-0.32c0.33-0.64,0.65-0.96,1.31-1.28c0-0.64,0.33-0.96,0.33-0.96c0-0.64,0-0.96,0.65-1.28
		c-0.33-0.32,0-0.96,0.65-1.6c0.33-0.32,0.65-0.64,0.33-0.96h0.65c0.33,0,0.33-0.32,0.33-0.32v-0.32l-0.33-0.32
		c0.33-0.64,0.33-0.96,0.65-0.96c0.33-0.32,0.65-0.64,0.65-0.96v-0.32c-0.33,0-0.65,0.64-0.98,1.28H1119.97z"/>
	<path d="M1121.61,206.85c0.65-0.96,1.31-1.92,1.96-2.24l0.33-0.32c0-0.32,0-0.96,0.65-1.28v-0.32h-0.33
		c-0.33,0.64-0.98,1.28-1.64,1.92c-0.33,0.32-0.33,0.64-0.33,0.64c-0.65,0.96-0.98,1.28-0.98,1.6H1121.61z"/>
	<path d="M1123.57,201.1v-0.64h-0.33c0,0-0.33,0.32,0,0.64H1123.57z"/>
	<path d="M1128.15,277.1c0,0.32-0.33,0.64-0.65,0.64v-0.64H1128.15z"/>
	<path d="M1133.39,273.27c-0.33,0.32-0.65,0.64-1.64,0.96c-0.33,0.64-0.98,0.96-1.96,1.28c0,0.32,0,0.32-0.33,0.32h-0.33
		C1130.44,274.86,1131.75,274.23,1133.39,273.27z"/>
	<path d="M1142.23,234.63l-0.33,0.32C1141.9,234.95,1141.9,234.63,1142.23,234.63z"/>
	<rect x="1142.23" y="234.95" width="0.33" height="0.32"/>
	<path d="M1142.88,234.31h0.33c0,0.32,0,0.64-0.33,0.96V234.31z"/>
</g>
<g id="u">
	<path d="M1054.1,194.4c0.98,2.55-0.65,5.43-1.31,7.98c-0.33,1.28-25.2,91.64-4.91,70.25c6.55-9.58,10.47-17.88,13.42-26.5
		c0,0.32,0.33,0.32,0.33,0.32l0.33,0.96c0,0-0.33,0-0.65,0.32l0.33,0.64c-0.33,0.32-0.33,0.64-0.33,0.96
		c-0.33,0.96-0.65,1.6-0.33,1.6c-0.33,1.28-0.65,1.92-0.65,2.24c-0.33,0.32-0.65,0.64-0.65,0.96l0.33,0.96
		c0.33,0.32,0.65,0.64,0.65,0.96h0.33c0.33-0.32,0.33-0.64,0.33-0.96l-0.33-0.96c1.31-2.55,1.96-3.51,1.64-3.83l0.98-0.96
		c-0.33-0.32-0.33-0.32-0.65-0.32v-0.96l0.98-2.24c-0.33-0.96,0-1.92,0.65-2.55h0.33v0.64c0,0.32-0.33,0.64-0.65,0.64v0.32
		c0.33,0.32,0.65,0.32,0.65,0.32h0.33c0.33-0.96,0.65-1.28,0.98-1.28c0-0.64,0-1.92,0.33-3.83v-0.32c-0.33,0-0.33-0.32-0.33-0.32
		l-0.33,0.32c-0.33,0-0.33,0.32-0.33,0.32c-0.33,1.6-0.33,2.24-0.65,2.55c-0.33,0-0.33,0-0.33-0.32l0.33-0.32
		c0-0.32,0-0.64,0.33-0.64l-0.33-1.6v-1.92h0.33l0.33,0.32h0.33c0.33-0.32,0.33-0.32,0.33-0.64v-0.32l-0.33-0.32v-1.28
		c0.65-0.64,0.65-1.6,0.65-2.55c0.33-0.64,0.65-1.28,0.33-2.24v-0.64c0.33-0.64,0.65-1.28,0.65-1.92c0.65-0.96,0.65-1.28,0.65-1.6
		v-0.32l-0.65-0.96h0.33c-0.33-0.32-0.33-0.32-0.33-0.64c1.64-6.07,3.27-13.09,5.24-20.75c2.95-9.9,12.44-7.98,18.98-7.34
		c4.25,0.32,8.18,4.79,6.55,10.22c-11.13,37.04-8.84,25.54-14.07,49.17c-0.65,5.75-0.98,11.81-1.64,17.88
		c12.76-13.41,16.36-17.56,32.4-38c-3.6,14.05-24.55,44.06-32.4,62.26c-2.29,5.11-22.91,3.51-23.24-1.6
		c-0.98-10.86-0.65-1.28-0.65-12.13c0-2.24,0-4.47,0.33-7.02c-3.27,4.79-3.27,8.62-6.22,13.09c-8.51,12.13-23.57,6.39-32.4-0.64
		c-6.22-4.15-7.53-12.77-6.55-18.84c0.33-0.96,0.33-1.6,0.65-2.55c2.95-16.6,5.89-38.32,9.49-55.56c0.33,0.32,0.65,0.32,0.98,0.64
		c0,0.32,0,0.64-0.33,0.96l0.33,0.64h0.33c0.65-0.96,0.98-0.96,0.98-0.96v-0.96l0.65-0.64l-0.33-0.64v-0.64
		c0.65-0.64,0.98-1.28,0.98-2.24c0-0.32,0.33-0.96,0.98-1.6l-0.33-0.32c0.33,0,0.65-0.96,0.33-2.87l-0.33-0.64h-0.33l-1.31,1.6
		c0.33,0,0.33,0.32,0.33,0.64l-0.33,0.96l0.33,1.6c-0.98,0.32-1.64,1.6-1.31,2.87c0,0.32,0.33,0.32,0.33,0.32
		c-0.33,0.32-0.33,0.64-0.65,0.64h-0.33c-0.33-0.32-0.33-0.32-0.65-0.32c1.31-6.07,2.95-11.5,4.58-15.97
		C1030.86,190.25,1051.48,191.84,1054.1,194.4z"/>
</g>
<g id="L">
	<path d="M995.92,314.46c18.98-1.92,149.25-9.9,140.09-6.71c-7.53,2.55-11.13,9.26-19.31,10.86c-2.62,0.32-4.25,2.55-13.75,3.51
		c-17.02,1.28-24.55,3.19-38.95,4.79c0-0.32,0-0.32-0.33-0.64l-0.65-0.32c-0.65,0-1.31,0.32-1.64,0.64l-0.66-0.64
		c-0.98,0.32-1.64,0.32-1.96,0c-0.65,0-0.98,0.32-1.31,0.96c-0.33-0.64-0.33-0.96,0-0.96l-0.33-0.32c-1.31,0.32-1.96,0.64-2.29,1.6
		h-0.33v-0.64c-0.33,0-0.65,0-1.64,0.64l-0.65-0.32v-0.32c-0.65,0-1.31,0-1.31,0.32v-0.64l0.33-0.64l-0.65-0.32l-1.31,1.28h0.33
		l0.33,0.32c-0.33,0.32-0.33,0.32,0,0.32c-0.65-0.32-1.64,0-2.62,0.64l-0.33-0.32l-0.65-0.32c0,0.32-0.33,0.32-0.65,0.32l-0.98,0.64
		l-0.33-0.64h-0.65c-0.98,0.32-1.64,0.32-2.29,0.32c-0.98,0.96-1.96,1.28-2.95,0.64c-0.65,0.32-1.31,0.64-1.96,0.64l-0.98-0.32
		c-0.33,0.64-0.65,1.28-1.64,1.6h-1.31c-0.33-0.64-0.98-0.96-1.31-1.28c-0.33,0.32-0.65,0.64-1.64,0.64l-2.29,0.64v0.64
		c0,0-0.33,0.32-0.98,0.64h-0.98v-0.32c0.98-0.32,1.31-0.64,1.31-0.64h-0.33l-1.64-0.32h-0.33l-0.33-0.32c0,0-0.33,0-0.65-0.32
		c-0.65,0.64-1.31,0.96-1.96,0.64c-0.98,0.32-1.96,0.64-2.29,0.64c-1.64-0.64-2.62-0.64-2.95-0.64h-0.33
		c-1.31-0.32-1.96,0-1.96,0.64l-1.96,0.32l-0.65-0.32v0.32c-1.64-0.32-2.62-0.32-2.62,0.32c-0.33,0-0.33,0-0.33-0.32h-0.65
		l0.33-0.64l-0.98-0.32c0,0.32-0.65,0.32-1.64,0.64l-0.98-0.64v0.32c-0.65,0.32-1.31,0.64-1.31,0.96c-1.64,0.32-2.29,0.64-2.62,0.96
		c-1.64,0.32-2.62,0.32-2.95,0.32c-1.64,0-2.29,0-2.62,0.32v0.96c0.98-0.32,1.64-0.32,1.96-0.64l0.33,0.32c0,0,0.33,0.32,0.33,0
		l0.65,0.32c-0.33,0.32-1.64,0.96-4.58,0.96l-0.65-0.32c-0.65-0.32-0.98-0.32-1.64-0.32c-1.31,0-2.29,0.32-3.93,0.32v0.32l0.33,0.64
		c-1.64,0.32-2.95,0.32-3.6,0.32c-0.98,0.64-1.64,0.64-2.29,0.32c-1.31,0-3.27,0.32-5.89,1.28c-0.65-0.32-1.31-0.32-1.96-0.32
		l-3.93,3.51c0.65,0,4.25-0.96,5.56-0.96l0.33-0.64l0.65-0.64c1.64-0.32,2.95-0.32,4.25-0.32c1.31-0.32,1.64-0.64,1.96-0.64
		l0.33,0.64h1.64c1.31-0.32,1.96-0.32,2.62,0v-0.96h0.33c0.98,0,2.62-0.32,5.24-0.96c1.96,0,2.95,0,2.95-0.32
		c0.98,0.32,1.96,0.32,2.29,0l0.65,0.32c0.98-0.32,1.64-0.64,1.64-0.96c1.31,0,2.29,0,2.95-0.32l0.33,0.32c0,0,0.33,0.32,0.33,0.64
		c-8.18,1.92-16.04,4.47-24.22,7.34c-5.24,1.92-9.49,2.55-13.75,2.24c-5.56-0.32-11.13-2.87-16.37-7.66
		c-4.58-4.15-9.49-8.3-7.86-11.81c3.93-9.9,9.82-29.06,16.04-52.37c4.91-17.88,10.15-38.32,15.06-57.79h0.65l0.33-0.96
		c0.33,0,0.65-0.64,1.64-2.55c-0.33-0.64-0.33-1.28,0.33-2.24l-0.65-1.28v-0.64l-0.33-0.32c0.65-1.92,0.98-3.51,1.31-5.11
		c0.65-1.28,0.98-2.55,0.98-3.51c0-0.32,0-0.96,0.65-1.92c0-0.64,0.33-1.6,0.98-3.51l0.65,0.64h0.33c0.33-1.28,0.65-2.55,0.65-3.83
		c0.33-0.32,0.33-0.96,0.33-1.6l-0.33-0.64c0.65-2.87,0.98-4.15,1.64-4.15v0.96l0.33,0.32c-0.33,0.32-0.65,0.96-0.65,1.6l0.33,0.32
		h0.33c0.33,0,0.65-0.96,0.65-2.24c0.33-0.32,0.33-1.28,0.98-3.19c0.33,0,0.65-0.64,1.31-1.92l1.31-1.28l-0.33-0.96
		c0.33-0.96,0.65-1.6,0.98-1.6l-0.33-0.96h-0.65v-0.32l-0.33-0.32c0.98-0.32,0.98-0.96,0.98-2.55h0.33l-0.33-0.64l0.65-1.92
		c0.65,0,0.98-0.64,0.98-1.6v-0.64c0.33,0,0-0.96,0-2.87c0-0.32,0.33-0.96,0.65-1.92c0-0.64,0.33-1.28,0.98-1.92v-0.64l-0.33-0.64
		v-1.92c0,0-0.33,0.32-0.65,0.96l-0.33,0.32l-0.33-0.64c0.65-0.96,1.31-1.28,1.31-1.28l0.33-0.32l0.98-1.92
		c0.33-0.96,0.65-1.28,0.98-1.28v-0.32c0-0.32-0.33-0.96-1.31-1.6c0.65-1.28,1.64-2.24,2.29-2.24v-0.96c0-0.64,0.33-1.28,0.65-1.92
		c0-0.96,0.33-1.6,1.31-2.55c0-0.64,0.33-1.28,0.65-2.24v-0.64l-0.33-0.32l0.65-0.96c0-0.32,0-0.64,0.33-0.64v-0.32l-0.65-0.64
		c0.65-0.64,1.31-1.28,1.31-2.24h0.33v0.32h0.65c0,0,0.33-0.32,0.98-0.64v-0.96l-0.98,0.32c-0.33,0-0.33,0-0.33-0.32
		c0,0,0-0.32,0.33-0.96v-0.32l-0.33-0.32c0.65-0.96,0.65-1.28,0.65-1.6h-0.33l-0.33-0.64c0.98,0,1.64-0.64,1.96-1.92
		c-0.33,0-0.65,0-0.98-0.32c0.65-0.32,0.98-0.64,0.98-1.28c0-0.32,0-0.96,0.33-1.6l-0.33-0.32l-0.33-0.64
		c0.65-0.32,0.98-0.64,0.98-1.28l-0.33-0.96c-0.33-0.32-0.33-0.32-0.33-0.64h-0.65l-0.33,0.32l-0.65,0.32
		c0,0.32-0.33,1.28-0.98,2.24l0.33,0.64c0,0.64-0.33,1.28-1.31,2.55l-0.65,1.28c0.33,0.96,0,1.6-0.33,1.92c0,1.28,0,2.24-0.65,3.19
		c-0.33,0-0.65,0.96-0.33,2.55c-1.31,1.28-1.96,2.87-1.31,4.47c-0.65,0.96-0.65,1.92-0.65,2.55c-0.33,2.24-0.65,2.87-0.98,3.19
		l-0.33,1.28c-0.33,0-0.33,0.32-0.65,0.96l-0.65,1.28v0.64l0.33,0.32v0.32c-0.33,0.96-0.33,1.28-0.65,1.28l-0.98,0.32l0.33,1.28
		l-0.65,2.24c0.33,1.28,0,2.24-0.98,2.55v0.96l-1.31,1.92c4.25-17.88,7.2-32.57,8.51-39.91c2.62-13.73,48.11-6.07,44.19,1.92
		c-24.88,52.05-52.04,180.73-55.97,192.54C987.09,316.37,991.34,314.78,995.92,314.46z"/>
	<polygon points="973.34,215.47 973.34,215.79 973.01,216.11 	"/>
	<path d="M986.1,163.75c0,0,0,0.32-0.65,0.64c0-0.32,0-0.96,0.33-1.6L986.1,163.75z"/>
	<path d="M985.78,162.47v0.32V162.47z"/>
	<path d="M985.78,178.11v-0.32l0.33-0.96l-0.33-0.32c0.33,0,0.33-0.32,0.65-0.32c0,0.32-0.33,0.96-0.33,1.6L985.78,178.11z"/>
	<path d="M986.43,175.56v0.64V175.56z"/>
	<path d="M1006.72,331.7h-1.64l0.65-0.32h1.96c-0.33,0-0.65,0.32-0.65,0.64L1006.72,331.7z"/>
</g>
<g id="_x35_">
	<path d="M857.5,263.05v0.64l-0.98,1.92v0.64h-0.98v0.32c0.65,0,0.65,0.32,0.65,0.32c0,0.32,0,0.64-0.33,0.64l-1.31,1.92l0.33,0.32
		l-0.65,1.28c-0.33,0-0.65,0.64-1.31,1.6c0,0.64-0.65,0.64-1.31,0.64c-0.33,0.64-0.33,1.28-0.65,2.55v1.28c0,0-0.65,0.32-1.31,0.32
		c-0.98,0.64-1.64,0.96-1.64,1.28c0.33,0.64,0.33,0.96,0.33,1.28h0.33c0.33-0.32,0.65-0.32,0.98-0.32v0.32
		c0,0.32-0.33,0.64-0.33,0.64v0.64c-0.65,0.32-0.98,0.96-1.96,1.92c0,0.32,0,0.64-0.33,0.96c0,0.32-0.33,0.32-0.33,0.64
		c0,0,0.33,0.32,0.33,0.64c-0.33,0-0.65,0.64-1.64,2.24h-0.98c-0.98,2.55-1.64,4.15-1.64,4.47c0,0.64-0.65,1.92-2.29,2.87l0.33,0.64
		l-0.65,0.32h-0.65c0,0-0.33,0-0.33,0.32v0.32l0.33,0.64c-0.33,0-0.98,0.64-1.96,1.92v0.64h0.98v0.32c0,0.32-0.65,0.64-1.31,0.64
		c-0.33,0.64-0.65,0.64-0.65,0.96v0.32l0.33,0.64v0.32c-0.33,1.6-1.31,2.24-2.29,2.24c0,0.32,0,0.32-0.33,0.32v0.64
		c0.33,0,0.65,0.32,0.65,0.32v0.32c-14.07,18.52-32.4,31.29-53.02,30.33c-36.99-1.6-53.68-45.66-33.71-77.59
		c-10.15,18.52,3.6,50.77,25.2,49.49c3.93-0.32,8.51-1.92,12.76-4.15c0,0.32,0.33,0.32,0.65,0.32l0.65-0.32
		c0.65-0.64,0.65-0.96,0.65-1.28c1.64-0.32,2.62-1.28,2.95-2.87c0.33-0.32,0.65-0.64,1.31-0.96l0.65,2.55
		c0.33,0.32,0.33,0.32,0.65,0.32l0.98-0.64c0.98-0.64,1.31-1.28,0.98-2.55c1.64-1.28,1.96-2.55,1.96-3.83
		c1.64-0.64,2.29-1.6,1.96-2.87l1.31-0.32c0.65-0.32,0.98-0.64,0.65-1.28c1.31-0.32,2.95-2.87,4.58-6.71l-0.33-0.32h-0.65
		c3.27-4.79,5.89-9.9,8.51-15.65c11.78-24.91,16.69-53.32,7.53-57.16l0.65-0.64l-0.65-0.32h-0.98c0-0.64,5.89-4.47,6.22-4.79
		l-6.22,2.55c-0.33,0.32-0.98,0-1.96,0.96c-0.33,0.32-0.65,0.32-1.31,0.32l-2.29,1.28h-0.65L812,212.6l-0.33,0.64
		c-1.64,0.64-3.6,1.28-5.24,2.24h-0.98l-0.65,0.96c-0.65,0-0.98,0.32-1.31,0.64l-0.33-0.32v-0.32l-0.33,0.32l-0.33,0.64
		c-1.31,0.64-2.62,1.6-3.93,2.24c-0.65,0-0.98,0.32-1.31,0.32l-0.33,0.64c-0.33,0.32-0.65,0.32-0.98,0.64h-0.33
		c-4.25,2.55-8.51,5.11-11.78,7.66c-0.33,0.32-0.65,0-0.98-0.32l-0.98,1.28l-0.33,0.64l-1.31,0.64l-0.98,1.28
		c-1.31,0.64-2.62,1.28-3.6,1.6c0,0-0.65,0.32-1.64,0.64l-1.64,1.92v0.64c-0.98,0-1.64-0.32-1.64,0l-0.33,0.32v0.96
		c-1.31,0.32-2.95,0.32-4.25,0c-15.71-4.47-19.97-1.6-19.97-22.03c0-13.41,10.15-86.85,18.66-95.79
		c5.56-7.34,25.53-7.34,35.35-10.22c52.37-1.6,39.6,10.22,51.06,15.97c2.95,1.6,5.56,1.6,7.2,3.19c1.31,1.28,4.25,2.87,4.25,4.47
		c0,2.87,5.56,5.75,4.25,5.75c-10.15-4.47-61.21-10.22-73.97,2.87c-2.62,2.87-21.27,61.95-8.51,54.6
		c17.35-9.9,35.35-20.75,55.31-20.75c7.2,0,7.2,7.34,17.02,14.69C868.95,201.74,867.97,232.72,857.5,263.05z"/>
	<path d="M748.18,259.54c0.65-0.96,1.31-2.24,2.29-3.51C749.49,257.3,748.83,258.26,748.18,259.54z"/>
	<path d="M759.96,155.44h-0.33l-0.98-0.32h-0.33c-0.33,0.32-0.33,0.64-0.33,0.64l0.65,3.51c0,0.32,0,0.64,0.33,0.64l0.33,1.6
		c0,0.32,0,0.64-0.33,0.64v0.64l-0.33,0.96l0.33,0.96c-0.33,0-0.65,0.96-1.31,2.87c0,1.6,0,2.87-0.33,3.19
		c0,0.64-0.33,1.6-1.31,2.24v0.64h0.33c1.31-1.6,1.96-3.19,1.64-3.83c0.98-3.19,1.31-4.79,1.31-5.43c0.33-1.28,0.65-2.55,0.65-3.51
		c1.64-4.47,2.29-7.02,1.96-7.98l-0.33,0.32C760.62,154.81,760.29,155.44,759.96,155.44z"/>
	<path d="M761.6,138.2v1.28l-0.65,0.32c0,1.6,0.33,2.55,0.65,3.51l-0.65,0.32l-0.65,1.28c0.33,0.32,0.33,0.64,0.65,1.6h-0.33
		l-0.65,0.64v0.32c-0.65,1.6-0.65,2.24-0.65,2.55c-0.33,2.24-0.65,3.51-0.33,3.51l0.65,0.64l0.33-0.32
		c1.31-3.19,1.64-4.79,1.31-5.11c0.98-3.51,1.31-5.75,0.98-6.07l1.31-1.92l1.31,0.64l0.65-0.64c-0.65-1.28-0.98-1.92-0.65-2.24
		l-0.98-0.64c-0.33,0,0-0.96,0.65-2.55c-0.33-0.32-0.33-1.6,0.65-3.51v-1.6h-0.33l-0.33,0.32c-1.31,2.87-1.96,4.79-1.96,5.75
		l-0.33,1.28C761.92,137.56,761.92,137.88,761.6,138.2z"/>
	<path d="M786.15,304.88c0,0,0-0.32,0.33-0.32C786.15,304.56,786.15,304.56,786.15,304.88z"/>
	<path d="M848.01,285.72c-0.65,0.32-0.98,0.64-0.98,0.64l0.33,0.32C847.68,286.36,847.68,286.04,848.01,285.72z"/>
	<path d="M858.48,245.81c-0.65,0-0.98,0.32-0.98,0.96l0.33,0.64c0,0-0.33,0.32-0.65,0.96V249l0.33,0.32c0,0.32-0.33,0.64-0.33,0.64
		c0-0.32,0-0.32-0.33-0.32h-0.33c-0.33,1.6-0.98,2.55-1.31,2.87v0.32c0,0.96,0,1.6-0.33,1.6v2.24l-0.33,0.32v0.32h0.33v0.32
		c-0.33,0-0.65,0.64-0.65,0.96c-0.33,0.64-0.65,1.28-0.65,2.24c0,0.32-0.33,0.64-0.65,0.64c0,0.32,0,0.64-0.33,1.28
		c0,0,0,0.32-0.33,1.28l-0.33,0.32h-0.65l0.33,1.28l0.33,0.64c-0.33,0-0.33,0.64-0.65,0.96l-0.33,0.32c0,0.32,0.33,0.32,0.33,0.32
		h0.65v-0.96c0.65-0.32,1.31-0.96,0.98-1.92c0.65-0.64,0.98-1.28,0.98-1.28l0.65-0.64v-0.64h-0.33c0.33,0,0.33-0.32,0.33-1.28
		c0.33,0,0.65-0.64,0.65-1.6c0,0,0.33,0,0.33-0.32v-0.96h-0.33v-0.32c0.33-0.64,0.65-0.96,0.65-0.96l0.33,0.32
		c-0.33,0-0.33,0-0.33,0.32v0.32h0.33c0.33,0,0.65-0.32,0.98-1.28h-0.65c-0.33,0-0.33-0.32-0.33-0.32v-0.32c0-0.32,0.33-0.64,0-1.28
		h0.65v-0.96l0.65-0.64v-0.32l-0.33-0.32v-0.32l0.33-0.32h-0.33v-0.32l0.33-0.32h0.33c0.33,0,0.65-0.32,0.65-0.64l0.33-0.32
		c0-0.32-0.33-0.32-0.65-0.64l0.33-0.96v-0.32l-0.33-0.32c0-0.32,0.33-0.64,0.33-1.28c0.33,0,0.33-0.64,0.65-1.6l-0.33-0.32
		C858.81,245.49,858.81,245.81,858.48,245.81z"/>
</g>
</svg>
